<?xml version="1.0" encoding="UTF-8" standalone="no"?>
<!DOCTYPE svg PUBLIC "-//W3C//DTD SVG 1.1//EN" "http://www.w3.org/Graphics/SVG/1.1/DTD/svg11.dtd" >
<svg xmlns="http://www.w3.org/2000/svg">
<metadata>
This is a SVG font generated by e-font.
</metadata>
<defs>
<font id="lineto-brown-regular" horiz-adv-x="542" >
<font-face units-per-em="1000" ascent="960" descent="-250" />
<missing-glyph horiz-adv-x="542" />
<glyph unicode="&#x20;" horiz-adv-x="270" />
<glyph unicode="&#x21;" horiz-adv-x="340" d="M123 470L123 700L218 700L218 470L203 220L138 220L123 470ZM100 60C100 79 107 96 121 110C134 123 151 130 170 130C189 130 206 123 220 110C233 96 240 79 240 60C240 41 233 24 220 11C206 -3 189 -10 170 -10C151 -10 134 -3 121 11C107 24 100 41 100 60Z"/>
<glyph unicode="&#x22;" horiz-adv-x="460" d="M80 700L175 700L160 450L95 450L80 700ZM285 700L380 700L365 450L300 450L285 700Z"/>
<glyph unicode="&#x23;" horiz-adv-x="580" d="M410 195L357 0L264 0L317 195L180 195L127 0L34 0L87 195L-15 195L-15 285L111 285L145 415L42 415L42 505L169 505L222 700L315 700L262 505L399 505L452 700L545 700L492 505L595 505L595 415L468 415L434 285L537 285L537 195L410 195ZM204 285L341 285L375 415L238 415L204 285Z"/>
<glyph unicode="&#x24;" horiz-adv-x="532" d="M270 85C286 85 302 88 317 93C332 98 345 105 356 114C367 123 375 134 382 147C389 160 392 174 392 190C392 217 384 238 368 255C351 271 331 285 307 297C282 309 256 320 228 331C200 342 174 355 151 370C126 387 105 407 88 432C71 457 62 487 62 524C62 546 66 567 74 587C82 607 93 625 108 641C122 657 139 671 160 682C180 693 202 700 227 705L227 815L322 815L322 706C354 701 382 692 405 679C428 666 447 653 462 640L403 567C365 599 323 615 278 615C263 615 249 613 236 609C222 605 210 599 199 591C188 583 179 573 172 562C165 550 162 536 162 521C162 499 170 481 187 466C203 451 223 438 248 427C272 415 298 403 326 392C353 381 378 368 401 353C413 345 424 336 435 326C446 316 455 305 464 292C473 279 480 264 485 248C490 231 492 213 492 193C492 166 488 142 479 120C470 97 459 78 444 61C429 44 411 29 390 18C369 7 347 -1 322 -6L322 -115L227 -115L227 -6C188 -1 152 12 119 31C85 50 55 75 30 107L99 175C120 150 144 128 173 111C202 94 234 85 270 85Z"/>
<glyph unicode="&#x25;" horiz-adv-x="945" d="M220 0L629 700L725 700L316 0L220 0ZM420 525C420 500 416 476 407 453C398 430 385 411 369 394C353 377 334 364 312 355C290 345 266 340 240 340C214 340 190 345 168 355C146 364 127 377 111 394C95 411 83 430 74 453C65 476 60 500 60 525C60 550 65 574 74 597C83 620 95 639 111 656C127 673 146 686 168 696C190 705 214 710 240 710C266 710 290 705 312 696C334 686 353 673 369 656C385 639 398 620 407 597C416 574 420 550 420 525ZM150 525C150 497 158 473 174 454C190 435 212 425 240 425C268 425 290 435 306 454C322 473 330 497 330 525C330 553 322 577 306 596C290 615 268 625 240 625C212 625 190 615 174 596C158 577 150 553 150 525ZM885 175C885 150 881 126 872 103C863 80 850 61 834 44C818 27 799 14 777 5C755 -5 731 -10 705 -10C679 -10 655 -5 633 5C611 14 592 27 576 44C560 61 548 80 539 103C530 126 525 150 525 175C525 200 530 224 539 247C548 270 560 289 576 306C592 323 611 336 633 346C655 355 679 360 705 360C731 360 755 355 777 346C799 336 818 323 834 306C850 289 863 270 872 247C881 224 885 200 885 175ZM615 175C615 147 623 123 639 104C655 85 677 75 705 75C733 75 755 85 771 104C787 123 795 147 795 175C795 203 787 227 771 246C755 265 733 275 705 275C677 275 655 265 639 246C623 227 615 203 615 175Z"/>
<glyph unicode="&#x26;" horiz-adv-x="655" d="M685 0L557 0L486 70C460 45 429 26 394 12C359 -3 319 -10 276 -10C241 -10 209 -5 179 5C149 15 123 29 101 48C79 67 62 89 49 116C36 142 30 171 30 204C30 229 33 251 40 271C47 290 56 308 67 325C78 341 91 356 106 369C121 382 136 395 152 407C130 430 112 454 97 477C82 500 75 525 75 553C75 574 79 594 87 613C94 632 105 648 120 663C134 678 151 689 171 698C190 706 212 710 236 710C256 710 276 706 295 699C314 692 330 681 345 668C360 654 372 637 381 618C390 599 394 577 394 553C394 516 384 484 365 459C345 433 322 410 295 389L470 214C480 240 485 268 485 298C485 330 483 356 478 376C473 396 470 410 467 417L557 442C560 433 565 417 571 392C577 367 580 335 580 298C580 270 577 243 570 217C563 191 554 166 541 143L685 0ZM125 204C125 186 129 169 136 154C143 139 154 126 168 115C181 104 197 95 216 89C234 83 254 80 276 80C305 80 332 85 357 95C381 105 402 119 420 136L216 341C191 324 169 304 152 282C134 260 125 234 125 204ZM299 553C299 572 293 588 281 601C268 614 253 620 236 620C215 620 198 613 187 600C176 586 170 570 170 553C170 536 176 519 189 502C201 485 214 469 228 454C249 469 266 485 279 501C292 516 299 534 299 553Z"/>
<glyph unicode="&#x27;" horiz-adv-x="255" d="M80 700L175 700L160 450L95 450L80 700Z"/>
<glyph unicode="&#x28;" horiz-adv-x="445" d="M245 250C245 174 257 102 280 33C303 -37 334 -100 375 -157L298 -210C251 -145 215 -73 189 4C163 81 150 163 150 250C150 337 163 419 189 496C215 573 251 645 298 710L375 657C334 600 303 537 280 468C257 399 245 326 245 250Z"/>
<glyph unicode="&#x29;" horiz-adv-x="445" d="M200 250C200 326 189 399 166 468C143 537 111 600 70 657L147 710C194 645 230 573 256 496C282 419 295 337 295 250C295 163 282 81 256 4C230 -73 194 -145 147 -210L70 -157C111 -100 143 -37 166 33C189 102 200 174 200 250Z"/>
<glyph unicode="&#x2a;" horiz-adv-x="500" d="M64 593L210 546L210 700L290 700L290 547L436 595L461 519L314 471L405 347L341 300L250 425L160 300L96 346L186 471L40 518L64 593Z"/>
<glyph unicode="&#x2b;" horiz-adv-x="540" d="M225 305L225 480L315 480L315 305L490 305L490 215L315 215L315 40L225 40L225 215L50 215L50 305L225 305Z"/>
<glyph unicode="&#x2c;" horiz-adv-x="340" d="M230 120L110 -140L45 -140L120 120L230 120Z"/>
<glyph unicode="&#x2d;" horiz-adv-x="460" d="M380 295L380 215L80 215L80 295L380 295Z"/>
<glyph unicode="&#x2e;" horiz-adv-x="340" d="M110 60C110 79 117 96 131 110C144 123 161 130 180 130C199 130 216 123 230 110C243 96 250 79 250 60C250 41 243 24 230 11C216 -3 199 -10 180 -10C161 -10 144 -3 131 11C117 24 110 41 110 60Z"/>
<glyph unicode="&#x2f;" horiz-adv-x="435" d="M5 0L331 700L430 700L104 0L5 0Z"/>
<glyph unicode="&#x30;" horiz-adv-x="590" d="M435 350C435 385 433 418 429 450C424 482 417 510 406 535C395 560 381 579 363 594C345 608 322 615 295 615C268 615 245 608 227 594C209 579 195 560 184 535C173 510 166 482 162 450C157 418 155 385 155 350C155 315 157 281 162 250C166 218 173 190 184 165C195 140 209 121 227 107C245 92 268 85 295 85C322 85 345 92 363 107C381 121 395 140 406 165C417 190 424 218 429 250C433 281 435 315 435 350ZM55 350C55 400 59 447 68 491C77 534 91 572 110 605C129 637 153 663 184 682C214 701 251 710 295 710C339 710 376 701 407 682C437 663 462 637 481 605C500 572 513 534 522 491C531 447 535 400 535 350C535 300 531 253 522 210C513 166 500 128 481 96C462 63 437 38 407 19C376 -1 339 -10 295 -10C251 -10 214 -1 184 19C153 38 129 63 110 96C91 128 77 166 68 210C59 253 55 300 55 350Z"/>
<glyph unicode="&#x31;" horiz-adv-x="405" d="M50 507L50 606L215 700L285 700L285 0L185 0L185 575L50 507Z"/>
<glyph unicode="&#x32;" horiz-adv-x="520" d="M36 551C45 584 58 611 75 632C92 653 110 669 130 680C149 691 169 699 189 704C209 708 227 710 242 710C273 710 301 704 327 693C353 682 376 667 395 648C414 629 428 606 439 581C450 555 455 528 455 499C455 458 446 421 429 388C411 355 389 323 364 294L188 95L455 95L455 0L35 0L35 65L274 338C301 369 322 397 335 420C348 443 355 470 355 499C355 514 352 528 347 542C342 556 334 569 325 580C315 591 303 599 290 606C276 612 261 615 244 615C212 615 187 606 168 589C149 572 134 549 125 522L36 551Z"/>
<glyph unicode="&#x33;" horiz-adv-x="540" d="M108 158C119 136 137 118 161 105C184 92 211 85 240 85C260 85 279 89 296 96C313 103 329 113 342 126C355 139 366 154 374 172C381 189 385 209 385 230C385 251 381 270 374 288C367 306 356 321 343 334C329 347 313 357 295 364C276 371 256 375 234 375C215 375 198 374 183 371C168 368 158 365 153 364L153 429L302 605L60 605L60 700L450 700L450 635L296 458C323 454 348 445 371 432C394 419 414 402 431 382C448 362 461 339 471 313C480 287 485 259 485 230C485 195 479 163 466 134C453 105 436 79 415 58C393 37 368 20 339 8C310 -4 279 -10 246 -10C198 -10 154 0 115 21C76 41 46 71 25 110L108 158Z"/>
<glyph unicode="&#x34;" horiz-adv-x="565" d="M15 235L375 700L445 700L445 265L555 265L555 170L445 170L445 0L345 0L345 170L15 170L15 235ZM345 265L345 501L157 265L345 265Z"/>
<glyph unicode="&#x35;" horiz-adv-x="550" d="M200 605L180 458C191 461 202 464 213 467C224 469 235 470 246 470C280 470 312 464 341 451C370 438 396 421 417 399C438 377 455 352 467 323C479 294 485 263 485 230C485 197 479 167 467 138C455 109 438 83 417 61C396 39 370 22 341 9C312 -4 280 -10 245 -10C202 -10 162 -1 126 17C90 35 61 59 40 90L116 149C129 132 147 117 170 104C193 91 218 85 246 85C267 85 286 89 303 97C320 104 335 115 347 128C359 141 368 157 375 174C382 191 385 210 385 230C385 250 382 269 375 286C368 303 359 319 347 332C334 345 319 356 302 364C284 371 264 375 243 375C222 375 202 371 184 364C166 357 150 347 137 335L68 345L118 700L446 700L446 605L200 605Z"/>
<glyph unicode="&#x36;" horiz-adv-x="585" d="M189 338C177 319 168 302 163 285C157 268 154 250 154 230C154 209 158 190 165 173C172 155 182 140 195 127C208 114 223 103 241 96C258 89 277 85 297 85C318 85 337 89 355 97C372 104 387 115 400 128C413 141 423 156 430 173C437 190 440 209 440 228C440 248 437 267 430 285C423 302 413 318 400 331C387 344 373 355 356 363C339 371 320 375 299 375C276 375 256 372 237 366C218 359 202 350 189 338ZM270 465C277 466 283 467 290 467C296 467 302 467 308 467C340 467 370 461 398 449C426 437 451 420 472 399C493 378 509 353 522 324C534 295 540 264 540 230C540 197 534 165 522 136C509 107 492 81 471 60C450 38 424 21 394 9C364 -4 332 -10 297 -10C262 -10 229 -4 200 9C170 21 144 38 123 60C102 81 85 106 73 135C61 164 55 194 55 227C55 244 57 261 60 278C63 295 69 313 78 334C85 350 95 368 106 387C117 406 130 427 144 448L310 700L423 700L270 465Z"/>
<glyph unicode="&#x37;" horiz-adv-x="520" d="M65 0L365 605L45 605L45 700L485 700L485 635L172 0L65 0Z"/>
<glyph unicode="&#x38;" horiz-adv-x="580" d="M290 -10C256 -10 225 -4 196 8C167 19 141 35 120 55C98 75 81 99 69 126C56 153 50 181 50 212C50 252 61 288 82 321C103 353 129 378 161 395C142 408 126 427 114 451C101 475 95 500 95 525C95 550 100 574 110 597C120 620 134 639 151 656C168 673 189 686 213 696C236 705 262 710 290 710C318 710 344 705 368 696C391 686 412 673 429 656C446 639 460 620 470 597C480 574 485 550 485 525C485 500 479 475 467 451C454 427 438 408 419 395C451 378 478 353 499 321C520 288 530 252 530 212C530 181 524 153 512 126C499 99 482 75 461 55C439 35 414 19 385 8C356 -4 324 -10 290 -10ZM290 340C270 340 252 337 235 330C218 323 203 314 190 303C177 291 168 277 161 262C154 247 150 230 150 212C150 194 154 177 161 162C168 147 177 133 190 122C203 111 218 102 235 95C252 88 270 85 290 85C310 85 329 88 346 95C363 102 377 111 390 122C403 133 413 147 420 162C427 177 430 194 430 212C430 230 427 247 420 262C413 277 403 291 390 303C377 314 363 323 346 330C329 337 310 340 290 340ZM290 615C262 615 239 606 222 589C204 572 195 550 195 525C195 500 204 478 222 461C239 444 262 435 290 435C318 435 341 444 359 461C376 478 385 500 385 525C385 550 376 572 359 589C341 606 318 615 290 615Z"/>
<glyph unicode="&#x39;" horiz-adv-x="585" d="M396 362C408 381 417 398 423 415C428 432 431 450 431 470C431 491 427 510 420 528C413 545 403 561 390 574C377 587 362 597 345 604C327 611 308 615 288 615C267 615 247 611 230 604C213 596 198 586 185 573C172 560 163 544 156 527C149 510 145 491 145 472C145 452 149 433 156 416C163 398 172 382 185 369C197 356 212 345 229 337C246 329 265 325 286 325C309 325 330 328 349 335C368 341 383 350 396 362ZM315 235C308 234 302 233 296 233C289 233 283 233 277 233C245 233 215 239 187 251C158 263 134 280 113 301C92 322 75 347 63 376C51 405 45 436 45 470C45 503 51 535 64 564C76 593 93 619 114 641C135 662 161 679 191 692C220 704 253 710 288 710C323 710 356 704 386 692C415 679 441 662 462 641C483 619 500 594 512 565C524 536 530 506 530 473C530 456 529 440 526 423C523 406 516 387 507 366C500 350 490 332 479 313C468 294 455 273 441 252L275 0L162 0L315 235Z"/>
<glyph unicode="&#x3a;" horiz-adv-x="340" d="M110 410C110 429 117 446 131 460C144 473 161 480 180 480C199 480 216 473 230 460C243 446 250 429 250 410C250 391 243 374 230 361C216 347 199 340 180 340C161 340 144 347 131 361C117 374 110 391 110 410ZM110 60C110 79 117 96 131 110C144 123 161 130 180 130C199 130 216 123 230 110C243 96 250 79 250 60C250 41 243 24 230 11C216 -3 199 -10 180 -10C161 -10 144 -3 131 11C117 24 110 41 110 60Z"/>
<glyph unicode="&#x3b;" horiz-adv-x="340" d="M110 410C110 429 117 446 131 460C144 473 161 480 180 480C199 480 216 473 230 460C243 446 250 429 250 410C250 391 243 374 230 361C216 347 199 340 180 340C161 340 144 347 131 361C117 374 110 391 110 410ZM230 120L110 -140L45 -140L120 120L230 120Z"/>
<glyph unicode="&#x3c;" horiz-adv-x="545" d="M490 140L490 42L50 230L50 290L490 478L490 380L209 260L490 140Z"/>
<glyph unicode="&#x3d;" horiz-adv-x="540" d="M490 395L490 305L50 305L50 395L490 395ZM490 215L490 125L50 125L50 215L490 215Z"/>
<glyph unicode="&#x3e;" horiz-adv-x="545" d="M336 260L55 380L55 478L495 290L495 230L55 42L55 140L336 260Z"/>
<glyph unicode="&#x3f;" horiz-adv-x="500" d="M65 570C70 590 78 609 91 626C103 643 118 658 136 671C153 683 173 693 195 700C217 707 240 710 264 710C292 710 318 705 342 696C366 686 387 673 405 657C422 640 436 621 446 599C455 576 460 553 460 528C460 502 456 479 447 460C438 440 428 422 415 406C402 390 388 376 373 364C358 352 344 341 331 331C318 321 308 312 299 303C290 294 286 286 286 277C286 264 295 250 312 235L249 169C228 184 214 201 205 220C196 239 191 257 191 276C191 297 195 315 204 330C213 345 223 359 236 372C249 385 263 397 278 408C293 419 307 431 320 443C333 454 343 467 352 481C361 494 365 510 365 528C365 553 356 575 337 593C318 611 294 620 264 620C237 620 214 613 194 598C173 583 160 565 155 544L65 570ZM190 60C190 79 197 96 211 110C224 123 241 130 260 130C279 130 296 123 310 110C323 96 330 79 330 60C330 41 323 24 310 11C296 -3 279 -10 260 -10C241 -10 224 -3 211 11C197 24 190 41 190 60Z"/>
<glyph unicode="&#x40;" horiz-adv-x="1000" d="M591 335C580 347 566 358 550 367C534 376 513 380 488 380C473 380 459 377 445 372C430 367 417 359 406 348C394 337 385 324 378 308C371 291 367 272 367 250C367 228 371 209 378 193C385 176 394 163 406 152C417 141 430 133 445 128C460 123 475 120 490 120C514 120 534 126 550 137C566 148 580 159 591 170L591 335ZM760 -106C725 -133 687 -153 644 -168C601 -183 555 -190 507 -190C446 -190 390 -179 337 -156C284 -133 237 -101 198 -61C158 -21 127 26 104 79C81 132 70 189 70 250C70 311 81 368 104 421C127 474 158 521 198 561C237 601 284 633 337 656C390 679 446 690 507 690C566 690 621 680 672 661C723 642 768 615 807 580C845 545 875 502 897 453C919 404 930 349 930 290C930 256 926 224 919 193C911 162 899 135 883 112C867 88 847 69 823 56C799 42 771 35 738 35C710 35 686 40 665 51C644 61 627 75 614 94C609 88 603 82 595 75C587 68 577 61 566 56C555 50 542 45 527 41C512 37 495 35 476 35C451 35 427 40 404 49C380 58 359 72 340 91C321 109 306 131 295 158C283 185 277 215 277 250C277 285 283 316 295 343C306 370 322 392 341 410C360 428 381 442 405 451C429 460 454 465 479 465C510 465 535 460 554 450C573 439 587 430 596 421L596 455L681 455L681 212C681 201 682 190 683 179C684 168 686 158 691 150C696 141 703 134 712 129C721 123 732 120 745 120C776 120 800 136 817 167C834 198 842 240 842 292C842 337 834 379 817 418C800 456 776 489 746 517C716 544 681 566 640 582C599 597 555 605 507 605C459 605 414 596 372 577C330 558 293 533 262 501C230 469 205 431 187 388C169 345 160 299 160 250C160 201 169 155 187 112C205 69 230 31 262 -1C293 -33 330 -58 372 -77C414 -96 459 -105 507 -105C546 -105 582 -99 617 -87C652 -74 684 -57 713 -36L760 -106Z"/>
<glyph unicode="&#x41;" horiz-adv-x="660" d="M477 180L182 180L109 0L5 0L295 700L365 700L655 0L551 0L477 180ZM222 275L438 275L330 535L222 275Z"/>
<glyph unicode="&#x42;" horiz-adv-x="625" d="M342 95C374 95 398 98 415 105C432 111 446 120 457 131C467 142 475 154 481 168C487 182 490 197 490 213C490 229 487 244 481 258C475 271 467 283 457 294C446 305 432 314 415 321C398 327 374 330 342 330L190 330L190 95L342 95ZM310 425C338 425 359 428 373 433C387 438 398 445 406 454C422 471 430 492 430 515C430 538 422 559 406 576C398 585 387 593 373 598C359 603 338 605 310 605L190 605L190 425L310 425ZM90 0L90 700L328 700C362 700 390 696 413 687C436 678 455 666 472 651C490 634 504 615 515 592C525 569 530 544 530 518C530 494 525 471 515 449C505 427 492 408 475 393C508 376 536 352 558 319C579 286 590 249 590 209C590 176 583 146 569 118C555 90 536 66 513 47C495 32 474 20 450 12C426 4 396 0 360 0L90 0Z"/>
<glyph unicode="&#x43;" horiz-adv-x="690" d="M35 350C35 401 44 448 62 492C80 535 105 573 137 606C168 638 206 663 249 682C292 701 338 710 389 710C439 710 487 701 532 682C577 663 614 636 645 602L578 536C557 559 530 578 497 593C463 608 427 615 389 615C353 615 320 608 289 595C258 582 232 563 209 540C186 516 168 488 155 456C142 423 135 388 135 350C135 311 142 275 155 242C168 209 187 181 211 158C234 135 262 117 294 104C326 91 361 85 398 85C421 85 443 88 464 94C484 100 502 108 519 117C536 126 551 137 564 149C577 160 589 172 599 184L670 120C655 101 637 83 617 67C597 51 575 37 552 26C529 15 504 6 478 -1C451 -7 425 -10 398 -10C346 -10 298 -1 254 17C209 35 171 60 139 92C106 124 81 162 63 206C44 250 35 298 35 350Z"/>
<glyph unicode="&#x44;" horiz-adv-x="715" d="M580 350C580 389 573 426 558 460C543 494 522 523 495 546C473 565 447 580 416 590C385 600 344 605 295 605L190 605L190 95L295 95C344 95 385 100 416 110C447 120 473 135 495 154C522 177 543 206 558 240C573 274 580 311 580 350ZM90 0L90 700L300 700C356 700 403 694 441 683C478 672 511 655 540 634C583 602 618 561 643 512C668 463 680 409 680 350C680 291 668 237 643 188C618 139 584 98 541 66C512 45 479 28 441 17C403 6 356 0 300 0L90 0Z"/>
<glyph unicode="&#x45;" horiz-adv-x="540" d="M420 425L420 330L190 330L190 95L500 95L500 0L90 0L90 700L490 700L490 605L190 605L190 425L420 425Z"/>
<glyph unicode="&#x46;" horiz-adv-x="510" d="M420 425L420 330L190 330L190 0L90 0L90 700L490 700L490 605L190 605L190 425L420 425Z"/>
<glyph unicode="&#x47;" horiz-adv-x="735" d="M670 120C655 101 637 83 617 68C597 52 575 38 552 27C529 15 504 6 478 -1C451 -7 425 -10 398 -10C346 -10 298 -1 254 17C209 35 171 60 139 92C106 124 81 162 63 206C44 250 35 298 35 350C35 401 44 448 62 492C80 535 105 573 137 606C168 638 206 663 249 682C292 701 338 710 389 710C439 710 487 701 532 682C577 663 614 636 645 602L578 536C557 559 530 578 497 593C463 608 427 615 389 615C353 615 320 608 289 595C258 582 232 563 209 540C186 516 168 488 155 456C142 423 135 388 135 350C135 311 142 275 155 242C168 209 187 181 211 158C234 135 262 117 294 104C326 91 361 85 398 85C435 85 469 91 498 104C527 116 551 131 570 150L570 330L370 330L370 425L670 425L670 120Z"/>
<glyph unicode="&#x48;" horiz-adv-x="770" d="M580 330L190 330L190 0L90 0L90 700L190 700L190 425L580 425L580 700L680 700L680 0L580 0L580 330Z"/>
<glyph unicode="&#x49;" horiz-adv-x="280" d="M90 700L190 700L190 0L90 0L90 700Z"/>
<glyph unicode="&#x4a;" horiz-adv-x="460" d="M89 141C97 124 109 110 126 100C142 90 161 85 182 85C197 85 212 89 227 96C241 103 252 113 261 124C267 132 272 142 275 154C278 165 280 182 280 203L280 700L380 700L380 210C380 182 378 159 374 141C370 122 364 106 356 91C339 61 315 37 284 18C253 -1 219 -10 182 -10C141 -10 105 0 72 20C39 39 15 67 0 103L89 141Z"/>
<glyph unicode="&#x4b;" horiz-adv-x="650" d="M90 700L190 700L190 405L478 700L610 700L294 375L630 0L502 0L190 350L190 0L90 0L90 700Z"/>
<glyph unicode="&#x4c;" horiz-adv-x="520" d="M190 95L500 95L500 0L90 0L90 700L190 700L190 95Z"/>
<glyph unicode="&#x4d;" horiz-adv-x="860" d="M465 150L395 150L190 471L190 0L90 0L90 700L160 700L430 273L700 700L770 700L770 0L670 0L670 471L465 150Z"/>
<glyph unicode="&#x4e;" horiz-adv-x="770" d="M190 514L190 0L90 0L90 700L160 700L580 186L580 700L680 700L680 0L610 0L190 514Z"/>
<glyph unicode="&#x4f;" horiz-adv-x="770" d="M35 350C35 401 44 448 62 492C80 536 105 574 136 607C167 639 204 664 247 683C290 701 336 710 385 710C434 710 480 701 523 683C566 664 603 639 634 607C665 574 690 536 708 492C726 448 735 401 735 350C735 299 726 251 708 208C690 164 665 126 634 94C603 61 566 36 523 18C480 -1 434 -10 385 -10C336 -10 290 -1 247 18C204 36 167 61 136 94C105 126 80 164 62 208C44 251 35 299 35 350ZM135 350C135 312 141 277 154 245C167 212 184 184 207 161C229 137 255 118 286 105C316 92 349 85 385 85C421 85 454 92 485 105C515 118 541 137 564 161C586 184 603 212 616 245C629 277 635 312 635 350C635 388 629 423 616 456C603 488 586 516 564 540C541 563 515 582 485 595C454 608 421 615 385 615C349 615 316 608 286 595C255 582 229 563 207 540C184 516 167 488 154 456C141 423 135 388 135 350Z"/>
<glyph unicode="&#x50;" horiz-adv-x="600" d="M350 405C374 405 393 408 407 414C421 419 433 427 442 436C451 445 458 456 463 468C468 479 470 492 470 505C470 518 468 531 463 543C458 554 451 565 442 574C433 583 421 591 407 597C393 602 374 605 350 605L190 605L190 405L350 405ZM190 310L190 0L90 0L90 700L355 700C389 700 418 696 441 688C464 680 484 669 501 654C522 636 539 614 552 589C564 563 570 535 570 505C570 475 564 447 552 422C539 396 522 374 501 356C484 341 464 330 441 322C418 314 389 310 355 310L190 310Z"/>
<glyph unicode="&#x51;" horiz-adv-x="775" d="M35 350C35 401 44 448 62 492C80 536 105 574 136 607C167 639 204 664 247 683C290 701 336 710 385 710C434 710 480 701 523 683C566 664 603 639 634 607C665 574 690 536 708 492C726 448 735 401 735 350C735 304 728 261 713 221C698 181 678 145 652 113L755 0L631 0L584 51C556 32 525 17 492 6C459 -5 423 -10 385 -10C336 -10 290 -1 247 18C204 36 167 61 136 94C105 126 80 164 62 208C44 251 35 299 35 350ZM135 350C135 312 141 277 154 245C167 212 184 184 207 161C229 137 255 118 286 105C316 92 349 85 385 85C410 85 434 88 457 95C479 102 500 111 519 123L351 310L421 370L585 187C600 209 613 234 622 261C631 288 635 318 635 350C635 388 629 423 616 456C603 488 586 516 564 540C541 563 515 582 485 595C454 608 421 615 385 615C349 615 316 608 286 595C255 582 229 563 207 540C184 516 167 488 154 456C141 423 135 388 135 350Z"/>
<glyph unicode="&#x52;" horiz-adv-x="640" d="M190 330L190 0L90 0L90 700L335 700C367 700 394 697 415 690C436 683 455 672 471 659C492 642 509 621 522 596C534 571 540 544 540 515C540 486 534 459 522 434C509 409 492 388 471 371C460 362 448 354 435 348C422 342 406 337 389 334L640 0L519 0L270 330L190 330ZM330 425C353 425 370 427 383 432C396 437 406 443 414 451C431 468 440 490 440 515C440 528 438 540 433 551C428 562 422 571 414 579C406 587 396 593 383 598C370 603 353 605 330 605L190 605L190 425L330 425Z"/>
<glyph unicode="&#x53;" horiz-adv-x="532" d="M99 175C120 150 144 128 173 111C202 94 234 85 270 85C286 85 302 88 317 93C332 98 345 105 356 114C367 123 375 134 382 147C389 160 392 174 392 190C392 217 384 238 368 255C351 271 331 285 307 297C282 309 256 320 228 331C200 342 174 355 151 370C126 387 105 407 88 432C71 457 62 487 62 524C62 549 67 573 78 596C89 619 104 639 123 656C142 673 164 686 190 696C215 705 243 710 274 710C296 710 317 708 336 704C355 699 372 694 388 687C403 680 417 672 430 664C442 656 453 648 462 640L403 567C365 599 323 615 278 615C263 615 249 613 236 609C222 605 210 599 199 591C188 583 179 573 172 562C165 550 162 536 162 521C162 499 170 481 187 466C203 451 223 438 248 427C272 415 298 403 326 392C353 381 378 368 401 353C413 345 424 336 435 326C446 316 455 305 464 292C473 279 480 264 485 248C490 231 492 213 492 193C492 162 486 135 475 110C464 85 448 63 429 46C410 28 387 14 361 5C334 -5 306 -10 275 -10C227 -10 182 0 140 20C98 40 61 69 30 107L99 175Z"/>
<glyph unicode="&#x54;" horiz-adv-x="510" d="M15 700L495 700L495 605L305 605L305 0L205 0L205 605L15 605L15 700Z"/>
<glyph unicode="&#x55;" horiz-adv-x="740" d="M370 -10C327 -10 286 -2 249 15C212 31 180 53 153 82C130 107 113 136 100 169C87 202 80 243 80 290L80 700L180 700L180 285C180 252 184 224 192 203C199 181 210 162 224 147C241 128 263 113 288 102C313 91 340 85 370 85C400 85 428 91 453 102C478 113 499 128 516 147C530 162 541 181 549 203C556 224 560 252 560 285L560 700L660 700L660 290C660 243 654 202 641 169C628 136 610 107 587 82C560 53 528 31 491 15C454 -2 413 -10 370 -10Z"/>
<glyph unicode="&#x56;" horiz-adv-x="640" d="M355 0L285 0L10 700L114 700L320 172L526 700L630 700L355 0Z"/>
<glyph unicode="&#x57;" horiz-adv-x="950" d="M300 0L230 0L10 700L112 700L269 193L440 700L510 700L681 193L838 700L940 700L720 0L650 0L475 518L300 0Z"/>
<glyph unicode="&#x58;" horiz-adv-x="659" d="M15 0L264 383L55 700L178 700L329 467L481 700L604 700L394 383L644 0L526 0L329 299L133 0L15 0Z"/>
<glyph unicode="&#x59;" horiz-adv-x="600" d="M350 320L350 0L250 0L250 320L10 700L122 700L300 419L478 700L590 700L350 320Z"/>
<glyph unicode="&#x5a;" horiz-adv-x="590" d="M70 700L540 700L540 635L176 95L560 95L560 0L40 0L40 65L406 605L70 605L70 700Z"/>
<glyph unicode="&#x5b;" horiz-adv-x="445" d="M150 700L395 700L395 610L245 610L245 -110L395 -110L395 -200L150 -200L150 700Z"/>
<glyph unicode="&#x5c;" horiz-adv-x="435" d="M331 0L5 700L104 700L430 0L331 0Z"/>
<glyph unicode="&#x5d;" horiz-adv-x="445" d="M295 -200L50 -200L50 -110L200 -110L200 610L50 610L50 700L295 700L295 -200Z"/>
<glyph unicode="&#x5e;" horiz-adv-x="540" d="M60 350L237 700L303 700L480 350L380 350L270 567L160 350L60 350Z"/>
<glyph unicode="&#x5f;" horiz-adv-x="490" d="M470 0L470 -80L20 -80L20 0L470 0Z"/>
<glyph unicode="&#x60;" horiz-adv-x="310" d="M175 550L70 700L175 700L240 550L175 550Z"/>
<glyph unicode="&#x61;" horiz-adv-x="605" d="M428 43C409 26 387 13 362 4C337 -6 311 -10 283 -10C262 -10 241 -7 220 -2C199 4 181 12 165 21C129 42 100 72 78 109C56 146 45 188 45 235C45 282 56 325 79 362C101 399 130 429 166 450C182 459 200 467 219 472C238 477 259 480 281 480C308 480 334 476 359 468C384 459 407 446 428 427L428 470L520 470L520 0L428 0L428 43ZM425 323C410 342 392 358 369 371C346 384 320 390 291 390C268 390 248 386 229 378C210 369 195 358 182 344C169 329 158 313 151 294C144 275 140 256 140 235C140 214 144 194 152 175C159 156 170 140 184 126C198 112 215 101 234 93C253 84 273 80 296 80C320 80 344 86 367 98C390 109 409 126 425 147L425 323Z"/>
<glyph unicode="&#x62;" horiz-adv-x="605" d="M177 0L85 0L85 710L180 710L180 429C201 446 224 459 249 468C274 476 299 480 324 480C346 480 367 477 386 472C405 467 423 459 439 450C475 429 504 399 527 362C549 325 560 282 560 235C560 188 549 146 527 109C505 72 476 42 440 21C424 12 406 4 385 -2C364 -7 343 -10 322 -10C265 -10 216 8 177 43L177 0ZM180 147C196 126 216 109 239 98C262 86 285 80 309 80C332 80 353 84 372 93C391 101 407 112 421 126C435 140 446 156 454 175C461 194 465 214 465 235C465 256 461 275 454 294C447 313 437 329 424 344C411 358 395 369 376 378C357 386 337 390 314 390C285 390 260 384 237 371C214 358 195 342 180 323L180 147Z"/>
<glyph unicode="&#x63;" horiz-adv-x="530" d="M505 100C495 84 483 69 468 56C453 42 437 30 419 21C400 11 381 3 360 -2C339 -7 317 -10 296 -10C260 -10 227 -4 196 9C165 21 139 38 117 60C94 82 77 108 64 138C51 168 45 200 45 235C45 270 51 302 64 332C76 362 93 388 115 410C136 432 162 449 192 462C222 474 255 480 290 480C331 480 370 471 405 452C440 433 468 409 490 378L420 319C407 337 389 353 368 368C346 383 320 390 290 390C269 390 249 386 231 379C212 371 196 360 183 346C170 332 159 316 152 297C144 278 140 257 140 235C140 212 144 191 152 172C159 153 170 136 184 123C198 110 215 99 234 92C253 84 273 80 296 80C327 80 354 87 376 102C398 116 417 133 432 153L505 100Z"/>
<glyph unicode="&#x64;" horiz-adv-x="605" d="M428 43C409 26 387 13 362 4C337 -6 311 -10 283 -10C262 -10 241 -7 220 -2C199 4 181 12 165 21C129 42 100 72 78 109C56 146 45 188 45 235C45 282 56 325 79 362C101 399 130 429 166 450C182 459 200 467 219 472C238 477 259 480 281 480C306 480 331 476 356 468C381 459 404 446 425 429L425 710L520 710L520 0L428 0L428 43ZM425 323C410 342 392 358 369 371C346 384 320 390 291 390C268 390 248 386 229 378C210 369 195 358 182 344C169 329 158 313 151 294C144 275 140 256 140 235C140 214 144 194 152 175C159 156 170 140 184 126C198 112 215 101 234 93C253 84 273 80 296 80C320 80 344 86 367 98C390 109 409 126 425 147L425 323Z"/>
<glyph unicode="&#x65;" horiz-adv-x="545" d="M137 215C138 195 143 177 152 160C160 143 171 128 184 115C197 102 213 91 231 84C249 77 268 73 289 73C324 73 352 80 373 94C394 107 411 122 424 137L486 78C469 55 443 35 410 17C377 -1 336 -10 288 -10C254 -10 222 -4 193 9C163 21 137 38 115 60C93 81 76 107 64 137C51 167 45 200 45 235C45 270 51 303 62 333C73 363 89 389 110 411C130 432 154 449 182 462C210 474 241 480 274 480C307 480 337 474 365 462C392 449 416 432 436 410C456 388 472 362 483 332C494 302 500 270 500 235C500 233 500 230 500 227C500 224 500 220 499 215L137 215ZM277 397C246 397 219 388 194 369C169 350 153 326 145 295L401 295C398 310 392 323 384 336C375 349 366 360 355 369C344 378 331 385 318 390C305 395 291 397 277 397Z"/>
<glyph unicode="&#x66;" horiz-adv-x="405" d="M355 626C352 627 347 628 340 629C333 630 327 630 320 630C307 630 293 627 280 622C267 616 256 608 248 597C241 588 237 578 234 565C231 552 230 534 230 513L230 470L375 470L375 385L230 385L230 0L135 0L135 385L25 385L25 470L135 470L135 510C135 542 137 568 142 589C147 609 154 627 165 642C182 667 204 686 231 700C258 713 287 720 319 720C329 720 339 719 350 718C360 717 368 715 375 713L355 626Z"/>
<glyph unicode="&#x67;" horiz-adv-x="605" d="M425 41C386 7 338 -10 283 -10C262 -10 241 -7 220 -2C199 4 181 12 165 21C129 42 100 72 78 109C56 146 45 188 45 235C45 282 56 325 79 362C101 399 130 429 166 450C182 459 200 467 219 472C238 477 259 480 281 480C308 480 334 476 359 468C384 459 407 446 428 427L428 470L520 470L520 20C520 -15 518 -45 513 -70C508 -94 501 -115 492 -134C473 -171 446 -199 411 -220C376 -240 336 -250 289 -250C258 -250 231 -247 206 -240C181 -233 159 -224 140 -213C121 -202 104 -191 91 -178C78 -165 67 -153 60 -141L130 -76C147 -99 168 -118 192 -135C215 -152 246 -160 285 -160C338 -160 376 -142 399 -106C408 -93 414 -77 419 -58C423 -39 425 -15 425 15L425 41ZM425 323C410 342 392 358 369 371C346 384 320 390 291 390C268 390 248 386 229 378C210 369 195 358 182 344C169 329 158 313 151 294C144 275 140 256 140 235C140 214 144 194 152 175C159 156 170 140 184 126C198 112 215 101 234 93C253 84 273 80 296 80C320 80 344 86 367 98C390 109 409 126 425 147L425 323Z"/>
<glyph unicode="&#x68;" horiz-adv-x="610" d="M180 429C193 440 212 452 235 463C258 474 285 480 318 480C353 480 385 473 415 458C444 443 469 422 489 397C504 378 516 355 524 330C531 304 535 271 535 230L535 0L440 0L440 235C440 265 438 288 433 304C428 320 421 333 412 344C401 358 387 369 370 378C353 386 334 390 315 390C284 390 257 383 235 370C212 356 194 340 180 323L180 0L85 0L85 710L180 710L180 429Z"/>
<glyph unicode="&#x69;" horiz-adv-x="265" d="M85 470L180 470L180 0L85 0L85 470ZM70 637C70 654 76 669 88 682C100 694 115 700 132 700C149 700 164 694 177 682C189 669 195 654 195 637C195 620 189 605 177 593C164 581 149 575 132 575C115 575 100 581 88 593C76 605 70 620 70 637Z"/>
<glyph unicode="&#x6a;" horiz-adv-x="285" d="M90 637C90 654 96 669 108 682C120 694 135 700 152 700C169 700 184 694 197 682C209 669 215 654 215 637C215 620 209 605 197 593C184 581 169 575 152 575C135 575 120 581 108 593C96 605 90 620 90 637ZM105 470L200 470L200 -40C200 -72 198 -98 193 -119C188 -139 181 -157 170 -172C153 -197 131 -216 104 -230C77 -243 48 -250 16 -250C6 -250 -4 -249 -15 -248C-25 -247 -33 -245 -40 -243L-20 -156C-17 -157 -12 -158 -5 -159C2 -160 8 -160 15 -160C28 -160 42 -157 55 -152C68 -146 79 -138 87 -127C94 -118 98 -108 101 -95C104 -82 105 -64 105 -43L105 470Z"/>
<glyph unicode="&#x6b;" horiz-adv-x="550" d="M540 0L413 0L180 230L180 0L85 0L85 710L180 710L180 290L376 470L510 470L275 258L540 0Z"/>
<glyph unicode="&#x6c;" horiz-adv-x="265" d="M85 710L180 710L180 0L85 0L85 710Z"/>
<glyph unicode="&#x6d;" horiz-adv-x="945" d="M177 470L177 425C182 430 189 436 198 443C207 449 217 455 229 461C241 466 254 471 269 475C284 478 299 480 315 480C350 480 381 473 410 459C438 444 462 425 481 402C502 423 527 442 555 457C582 472 617 480 660 480C694 480 726 473 755 459C784 445 808 426 827 401C842 383 853 362 860 337C867 312 870 280 870 240L870 0L775 0L775 255C775 279 773 298 768 313C763 327 757 339 748 349C737 362 724 372 709 379C694 386 677 390 660 390C626 390 598 383 575 369C552 354 532 339 517 323C520 312 522 299 523 286C524 272 525 257 525 240L525 0L430 0L430 255C430 279 428 298 423 313C418 327 412 339 403 349C392 362 379 372 363 379C347 386 330 390 312 390C283 390 257 383 234 369C211 354 193 339 180 323L180 0L85 0L85 470L177 470Z"/>
<glyph unicode="&#x6e;" horiz-adv-x="610" d="M177 425C190 437 208 449 232 462C255 474 284 480 318 480C353 480 385 473 415 458C444 443 469 422 489 397C504 378 516 355 524 330C531 304 535 271 535 230L535 0L440 0L440 235C440 265 438 288 433 304C428 320 421 333 412 344C401 358 387 369 370 378C353 386 334 390 315 390C284 390 257 383 235 370C212 356 194 340 180 323L180 0L85 0L85 470L177 470L177 425Z"/>
<glyph unicode="&#x6f;" horiz-adv-x="576" d="M45 235C45 270 51 302 64 332C76 362 93 388 115 410C136 432 162 449 192 462C221 474 253 480 288 480C323 480 355 474 385 462C414 449 440 432 462 410C483 388 500 362 513 332C525 302 531 270 531 235C531 200 525 167 513 138C500 108 483 82 462 60C440 38 414 21 385 9C355 -4 323 -10 288 -10C253 -10 221 -4 192 9C162 21 136 38 115 60C93 82 76 108 64 138C51 167 45 200 45 235ZM140 235C140 214 144 194 151 175C158 156 169 139 182 125C195 111 210 100 228 92C246 84 266 80 288 80C310 80 330 84 348 92C366 100 382 111 395 125C408 139 418 156 425 175C432 194 436 214 436 235C436 256 432 277 425 296C418 315 408 331 395 345C382 359 366 370 348 378C330 386 310 390 288 390C266 390 246 386 228 378C210 370 195 359 182 345C169 331 158 315 151 296C144 277 140 256 140 235Z"/>
<glyph unicode="&#x70;" horiz-adv-x="605" d="M180 -240L85 -240L85 470L177 470L177 427C198 446 222 459 247 468C272 476 297 480 324 480C346 480 367 477 386 472C405 467 423 459 439 450C475 429 504 399 527 362C549 325 560 282 560 235C560 188 549 146 527 109C505 72 476 42 440 21C424 12 406 4 385 -2C364 -7 343 -10 322 -10C267 -10 219 7 180 41L180 -240ZM180 147C196 126 216 109 239 98C262 86 285 80 309 80C332 80 353 84 372 93C391 101 407 112 421 126C435 140 446 156 454 175C461 194 465 214 465 235C465 256 461 275 454 294C447 313 437 329 424 344C411 358 395 369 376 378C357 386 337 390 314 390C285 390 260 384 237 371C214 358 195 342 180 323L180 147Z"/>
<glyph unicode="&#x71;" horiz-adv-x="605" d="M425 41C386 7 338 -10 283 -10C262 -10 241 -7 220 -2C199 4 181 12 165 21C129 42 100 72 78 109C56 146 45 188 45 235C45 282 56 325 79 362C101 399 130 429 166 450C182 459 200 467 219 472C238 477 259 480 281 480C308 480 334 476 359 468C384 459 407 446 428 427L428 470L520 470L520 -240L425 -240L425 41ZM425 323C410 342 392 358 369 371C346 384 320 390 291 390C268 390 248 386 229 378C210 369 195 358 182 344C169 329 158 313 151 294C144 275 140 256 140 235C140 214 144 194 152 175C159 156 170 140 184 126C198 112 215 101 234 93C253 84 273 80 296 80C320 80 344 86 367 98C390 109 409 126 425 147L425 323Z"/>
<glyph unicode="&#x72;" horiz-adv-x="385" d="M344 386C334 389 322 390 307 390C282 390 258 383 235 368C212 353 193 334 180 311L180 0L85 0L85 470L177 470L177 416C188 432 206 447 230 460C254 473 283 480 318 480C323 480 330 480 337 480C344 479 350 478 355 477L344 386Z"/>
<glyph unicode="&#x73;" horiz-adv-x="455" d="M89 125C134 90 180 73 228 73C249 73 268 78 285 89C302 99 310 113 310 132C310 145 306 156 297 164C288 172 276 179 262 184C248 189 232 193 215 197C198 201 180 206 163 212C149 217 136 223 123 230C110 237 98 245 88 255C78 265 70 276 64 289C58 302 55 316 55 333C55 358 60 380 71 399C81 417 94 432 111 444C127 456 145 465 166 471C187 477 208 480 229 480C264 480 294 475 319 466C344 456 366 443 385 428L336 360C321 371 306 380 289 387C272 394 254 397 235 397C212 397 192 392 175 382C158 371 150 357 150 338C150 322 158 310 175 303C191 296 211 289 234 283C253 278 272 273 292 266C312 259 330 249 347 238C364 227 378 213 389 196C400 179 405 158 405 134C405 112 400 92 391 74C381 56 368 41 352 29C336 16 317 7 296 0C275 -7 253 -10 230 -10C157 -10 93 12 40 55L89 125Z"/>
<glyph unicode="&#x74;" horiz-adv-x="420" d="M375 0C366 -3 354 -6 341 -8C328 -9 314 -10 301 -10C271 -10 245 -5 224 5C202 14 183 28 168 45C154 60 144 79 139 100C133 121 130 145 130 170L130 385L10 385L10 470L130 470L130 600L225 600L225 470L375 470L375 385L225 385L225 165C225 152 226 141 228 131C229 121 233 112 239 105C246 97 255 91 267 87C279 82 291 80 304 80C311 80 320 81 330 82C340 83 349 84 356 86L375 0Z"/>
<glyph unicode="&#x75;" horiz-adv-x="600" d="M285 -10C251 -10 220 -3 191 11C162 25 137 44 118 69C103 87 93 108 86 133C79 158 75 190 75 230L75 470L170 470L170 215C170 191 172 172 177 158C182 143 188 131 197 121C208 108 221 98 237 91C253 84 270 80 288 80C317 80 343 87 366 102C389 116 407 131 420 147L420 470L515 470L515 0L423 0L423 43C418 38 411 32 402 26C393 20 382 14 371 9C359 4 346 -1 331 -5C316 -8 301 -10 285 -10Z"/>
<glyph unicode="&#x76;" horiz-adv-x="494" d="M10 470L108 470L247 150L386 470L484 470L280 0L214 0L10 470Z"/>
<glyph unicode="&#x77;" horiz-adv-x="798" d="M432 470L561 149L690 470L788 470L597 0L531 0L399 330L267 0L201 0L10 470L108 470L237 149L366 470L432 470Z"/>
<glyph unicode="&#x78;" horiz-adv-x="510" d="M255 176L128 0L15 0L193 247L32 470L144 470L255 318L366 470L478 470L317 247L495 0L382 0L255 176Z"/>
<glyph unicode="&#x79;" horiz-adv-x="509" d="M84 -240L211 49L10 470L112 470L259 160L394 470L494 470L185 -240L84 -240Z"/>
<glyph unicode="&#x7a;" horiz-adv-x="470" d="M298 385L55 385L55 470L430 470L430 410L171 85L450 85L450 0L40 0L40 60L298 385Z"/>
<glyph unicode="&#x7b;" horiz-adv-x="445" d="M192 250C199 247 205 243 212 238C218 233 224 226 229 218C234 210 238 200 241 189C244 178 245 164 245 147C245 115 243 85 240 57C237 29 235 1 235 -27C235 -40 236 -52 239 -63C241 -74 245 -83 252 -90C264 -103 284 -110 311 -110L345 -110L345 -200L315 -200C284 -200 260 -198 241 -193C222 -188 205 -179 192 -168C175 -155 163 -137 154 -115C145 -93 140 -66 140 -33C140 0 142 33 145 64C148 95 150 123 150 150C150 176 144 194 131 205C118 215 98 220 70 220L70 280C98 280 118 285 131 296C144 306 150 324 150 350C150 377 148 406 145 437C142 468 140 500 140 533C140 566 145 593 154 615C163 637 175 655 192 668C205 679 222 688 241 693C260 698 284 700 315 700L345 700L345 610L311 610C284 610 264 603 252 590C245 583 241 574 239 563C236 552 235 540 235 527C235 499 237 471 240 443C243 415 245 385 245 353C245 336 244 322 241 311C238 300 234 290 229 282C224 274 218 268 212 263C205 258 199 253 192 250Z"/>
<glyph unicode="&#x7c;" horiz-adv-x="215" d="M60 700L155 700L155 -200L60 -200L60 700Z"/>
<glyph unicode="&#x7d;" horiz-adv-x="445" d="M253 250C246 253 240 258 234 263C227 268 222 274 217 282C212 290 208 300 205 311C202 322 200 336 200 353C200 385 202 415 205 443C208 471 210 499 210 527C210 540 209 552 207 563C204 574 200 583 193 590C181 603 161 610 134 610L100 610L100 700L130 700C161 700 186 698 205 693C224 688 240 679 253 668C270 655 283 637 292 615C301 593 305 566 305 533C305 500 303 468 300 437C297 406 295 377 295 350C295 324 301 306 314 296C327 285 347 280 375 280L375 220C347 220 327 215 314 205C301 194 295 176 295 150C295 123 297 95 300 64C303 33 305 0 305 -33C305 -66 301 -93 292 -115C283 -137 270 -155 253 -168C240 -179 224 -188 205 -193C186 -198 161 -200 130 -200L100 -200L100 -110L134 -110C161 -110 181 -103 193 -90C200 -83 204 -74 207 -63C209 -52 210 -40 210 -27C210 1 208 29 205 57C202 85 200 115 200 147C200 164 202 178 205 189C208 200 212 210 217 218C222 226 227 233 234 238C240 243 246 247 253 250Z"/>
<glyph unicode="&#x7e;" horiz-adv-x="560" d="M535 299C529 284 522 269 513 254C504 239 493 225 481 213C468 200 454 190 438 183C421 175 403 171 383 171C360 171 339 176 320 185C301 194 284 204 268 215C252 226 237 236 223 245C209 254 195 259 181 259C172 259 163 257 156 252C148 247 141 241 134 234C127 227 121 218 116 209C111 200 106 191 102 182L25 221C31 236 39 251 48 266C57 281 67 295 80 308C92 320 106 330 123 338C139 345 157 349 177 349C200 349 221 344 240 335C259 326 276 316 292 305C308 294 323 284 337 275C351 266 365 261 379 261C388 261 396 263 404 268C412 273 419 279 426 286C433 293 439 302 444 311C449 320 454 329 458 338L535 299Z"/>
<glyph unicode="&#xa0;" horiz-adv-x="270" />
<glyph unicode="&#xa1;" horiz-adv-x="340" d="M138 240L203 240L218 -10L218 -240L123 -240L123 -10L138 240ZM100 410C100 429 107 446 121 460C134 473 151 480 170 480C189 480 206 473 220 460C233 446 240 429 240 410C240 391 233 374 220 361C206 347 189 340 170 340C151 340 134 347 121 361C107 374 100 391 100 410Z"/>
<glyph unicode="&#xa2;" horiz-adv-x="530" d="M242 -4C213 1 186 11 162 26C138 40 117 58 100 79C83 100 69 123 60 150C50 177 45 205 45 235C45 266 50 294 60 321C69 348 83 372 100 393C117 414 138 431 162 446C186 460 213 470 242 475L242 585L337 585L337 475C368 469 397 458 424 441C450 424 472 403 490 378L420 319C407 337 389 353 368 368C346 383 320 390 290 390C269 390 249 386 231 379C212 371 196 360 183 346C170 332 159 316 152 297C144 278 140 257 140 235C140 212 144 191 152 172C159 153 170 136 184 123C198 110 215 99 234 92C253 84 273 80 296 80C327 80 354 87 376 102C398 116 417 133 432 153L505 100C488 72 465 49 436 30C406 11 373 -1 337 -6L337 -115L242 -115L242 -4Z"/>
<glyph unicode="&#xa3;" horiz-adv-x="530" d="M385 400L385 315L265 315C269 296 271 276 271 255C271 224 266 193 255 164C244 134 230 109 213 90L505 90L505 0L40 0L40 60C62 69 82 81 99 96C116 111 130 127 142 145C153 163 162 182 168 201C173 220 176 238 176 255C176 266 175 276 174 286C172 296 170 306 167 315L60 315L60 400L136 400C128 419 121 439 115 459C109 479 106 501 106 524C106 551 111 577 122 600C133 623 147 642 165 659C183 675 204 688 227 697C250 706 274 710 299 710C320 710 339 707 357 702C374 697 390 690 405 681C419 672 432 662 444 651C455 640 465 628 473 616L398 562C389 577 376 591 359 603C342 614 322 620 299 620C287 620 275 618 264 614C252 609 241 603 232 594C223 585 215 575 210 563C204 551 201 537 201 522C201 502 205 482 213 462C220 442 228 421 237 400L385 400Z"/>
<glyph unicode="&#xa4;" horiz-adv-x="560" d="M74 351C74 372 77 391 83 410C88 429 96 446 106 462L30 538L93 601L169 525C185 535 202 543 221 549C240 554 259 557 280 557C301 557 320 554 339 549C358 543 375 535 391 525L467 601L530 538L454 462C475 429 486 392 486 351C486 310 475 273 454 240L530 164L467 101L391 177C358 156 321 145 280 145C239 145 202 156 169 177L93 101L30 164L106 240C96 256 88 273 83 292C77 311 74 330 74 351ZM169 351C169 336 172 321 178 308C184 295 192 283 202 273C212 263 224 255 237 249C250 243 265 240 280 240C295 240 310 243 323 249C336 255 348 263 358 273C368 283 376 295 382 308C388 321 391 336 391 351C391 366 388 381 382 394C376 407 368 419 358 429C348 439 336 447 323 453C310 459 295 462 280 462C265 462 250 459 237 453C224 447 212 439 202 429C192 419 184 407 178 394C172 381 169 366 169 351Z"/>
<glyph unicode="&#xa5;" horiz-adv-x="600" d="M540 315L540 230L350 230L350 0L250 0L250 230L60 230L60 315L250 315L206 385L60 385L60 470L153 470L10 700L124 700L300 414L476 700L590 700L446 470L540 470L540 385L393 385L350 315L540 315Z"/>
<glyph unicode="&#xa6;" horiz-adv-x="255" d="M80 190L175 190L175 -200L80 -200L80 190ZM80 700L175 700L175 310L80 310L80 700Z"/>
<glyph unicode="&#xa7;" horiz-adv-x="580" d="M92 524C92 549 97 573 108 596C119 619 134 639 153 656C172 673 194 686 220 696C245 705 273 710 304 710C326 710 347 708 366 704C385 699 402 694 418 687C433 680 447 672 460 664C472 656 483 648 492 640L433 567C395 599 353 615 308 615C293 615 279 613 266 610C252 606 240 600 229 593C218 586 209 577 202 566C195 555 192 542 192 527C192 508 200 492 215 480C230 468 250 457 273 447C296 437 322 427 350 418C378 408 405 396 430 382C460 366 485 345 505 319C525 293 535 261 535 222C535 190 527 160 510 131C493 102 471 78 446 59C459 46 469 31 477 14C484 -3 488 -22 488 -44C488 -69 483 -93 472 -116C461 -139 447 -159 428 -176C409 -193 386 -206 361 -216C335 -225 307 -230 276 -230C254 -230 234 -228 215 -224C196 -219 178 -214 163 -207C147 -200 133 -192 121 -184C108 -176 97 -168 88 -160L147 -87C185 -119 227 -135 272 -135C287 -135 301 -133 315 -130C328 -126 341 -120 352 -113C363 -106 371 -97 378 -86C385 -75 388 -62 388 -47C388 -28 380 -13 365 -1C350 12 330 23 307 33C284 43 258 53 230 63C202 72 175 84 150 98C120 114 95 135 75 161C55 187 45 219 45 258C45 290 54 320 71 349C88 378 109 402 134 421C121 434 110 448 103 465C96 482 92 501 92 524ZM145 262C145 241 152 223 165 209C178 194 196 182 217 172C238 161 261 152 287 143C312 134 337 124 361 113C370 117 379 123 388 130C397 137 405 146 412 155C419 164 424 174 429 185C433 196 435 207 435 218C435 239 428 257 415 271C402 285 385 297 364 308C343 319 319 328 294 337C268 346 243 356 218 367C209 362 201 357 192 350C183 343 176 334 169 325C162 316 156 306 152 295C147 284 145 273 145 262Z"/>
<glyph unicode="&#xa8;" horiz-adv-x="450" d="M70 617C70 634 76 649 88 662C100 674 115 680 132 680C149 680 164 674 177 662C189 649 195 634 195 617C195 600 189 585 177 573C164 561 149 555 132 555C115 555 100 561 88 573C76 585 70 600 70 617ZM255 617C255 634 261 649 273 662C285 674 300 680 317 680C334 680 349 674 362 662C374 649 380 634 380 617C380 600 374 585 362 573C349 561 334 555 317 555C300 555 285 561 273 573C261 585 255 600 255 617Z"/>
<glyph unicode="&#xa9;" horiz-adv-x="840" d="M517 450C506 459 493 468 479 475C464 482 447 485 427 485C392 485 364 473 341 448C318 423 307 392 307 353C307 334 310 317 316 301C322 284 331 270 342 258C353 246 366 237 381 230C396 223 414 220 433 220C454 220 472 224 487 231C502 238 515 247 528 256L567 204C550 189 530 176 507 167C484 157 459 152 431 152C402 152 375 157 351 168C327 178 306 192 289 210C272 228 258 249 249 274C239 299 234 325 234 353C234 381 239 407 249 432C258 456 272 477 289 495C306 513 327 527 350 538C373 548 399 553 427 553C454 553 479 548 500 539C521 529 539 516 556 501L517 450ZM70 350C70 398 79 443 98 486C116 529 141 566 173 598C204 629 241 654 284 673C327 691 372 700 420 700C468 700 513 691 556 673C599 654 636 629 668 598C699 566 724 529 743 486C761 443 770 398 770 350C770 302 761 257 743 214C724 171 699 134 668 103C636 71 599 46 556 28C513 9 468 0 420 0C372 0 327 9 284 28C241 46 204 71 173 103C141 134 116 171 98 214C79 257 70 302 70 350ZM135 350C135 311 143 274 158 240C173 205 193 175 219 150C244 124 274 104 309 89C343 74 380 66 419 66C458 66 495 74 530 89C565 104 595 124 621 150C646 175 667 205 682 240C697 274 704 311 704 350C704 389 697 426 682 461C667 496 646 526 621 552C595 577 565 598 530 613C495 628 458 635 419 635C380 635 343 628 309 613C274 598 244 577 219 552C193 526 173 496 158 461C143 426 135 389 135 350Z"/>
<glyph unicode="&#xaa;" horiz-adv-x="416" d="M292 604C283 615 273 625 260 632C247 639 232 643 215 643C202 643 190 641 179 636C168 631 158 624 150 616C142 607 136 597 131 586C126 575 124 563 124 550C124 537 126 525 131 514C136 503 142 493 150 485C158 476 168 470 179 465C190 460 202 457 215 457C232 457 247 461 260 468C273 475 283 485 292 496L292 604ZM366 397L294 397L294 422C270 401 240 390 204 390C183 390 164 394 145 403C126 411 110 422 96 437C82 451 71 468 63 487C54 506 50 527 50 550C50 573 54 594 63 613C71 632 82 649 96 664C110 678 126 689 145 698C164 706 183 710 204 710C240 710 270 699 294 678L294 703L366 703L366 397Z"/>
<glyph unicode="&#xab;" horiz-adv-x="600" d="M330 50L214 50L80 215L80 265L214 430L330 430L176 240L330 50ZM560 50L444 50L310 215L310 265L444 430L560 430L406 240L560 50Z"/>
<glyph unicode="&#xac;" horiz-adv-x="530" d="M480 125L390 125L390 305L40 305L40 395L480 395L480 125Z"/>
<glyph unicode="&#xad;" horiz-adv-x="460" d="M380 295L380 215L80 215L80 295L380 295Z"/>
<glyph unicode="&#xae;" horiz-adv-x="840" d="M546 438C546 427 544 417 541 406C538 395 533 385 527 376C520 367 513 359 504 352C495 345 485 339 474 336L596 161L513 161L394 331L375 331L375 161L303 161L303 544L431 544C448 544 462 542 474 538C485 534 496 528 505 521C532 500 546 472 546 438ZM375 399L425 399C436 399 445 400 451 402C456 404 461 407 464 411C470 418 473 426 473 437C473 446 470 455 464 462C461 466 456 469 451 472C445 475 436 476 425 476L375 476L375 399ZM70 350C70 398 79 443 98 486C116 529 141 566 173 598C204 629 241 654 284 673C327 691 372 700 420 700C468 700 513 691 556 673C599 654 636 629 668 598C699 566 724 529 743 486C761 443 770 398 770 350C770 302 761 257 743 214C724 171 699 134 668 103C636 71 599 46 556 28C513 9 468 0 420 0C372 0 327 9 284 28C241 46 204 71 173 103C141 134 116 171 98 214C79 257 70 302 70 350ZM135 350C135 311 143 274 158 240C173 205 193 175 219 150C244 124 274 104 309 89C343 74 380 66 419 66C458 66 495 74 530 89C565 104 595 124 621 150C646 175 667 205 682 240C697 274 704 311 704 350C704 389 697 426 682 461C667 496 646 526 621 552C595 577 565 598 530 613C495 628 458 635 419 635C380 635 343 628 309 613C274 598 244 577 219 552C193 526 173 496 158 461C143 426 135 389 135 350Z"/>
<glyph unicode="&#xaf;" horiz-adv-x="440" d="M370 660L370 575L70 575L70 660L370 660Z"/>
<glyph unicode="&#xb0;" horiz-adv-x="400" d="M40 550C40 572 44 593 53 612C61 631 72 648 87 663C102 678 119 689 138 698C157 706 178 710 200 710C222 710 243 706 262 698C281 689 298 678 313 663C328 648 339 631 348 612C356 593 360 572 360 550C360 528 356 507 348 488C339 469 328 452 313 437C298 422 281 411 262 403C243 394 222 390 200 390C178 390 157 394 138 403C119 411 102 422 87 437C72 452 61 469 53 488C44 507 40 528 40 550ZM120 550C120 528 128 509 144 494C159 478 178 470 200 470C222 470 241 478 257 494C272 509 280 528 280 550C280 572 272 591 257 607C241 622 222 630 200 630C178 630 159 622 144 607C128 591 120 572 120 550Z"/>
<glyph unicode="&#xb1;" horiz-adv-x="540" d="M225 365L225 500L315 500L315 365L490 365L490 275L315 275L315 140L225 140L225 275L50 275L50 365L225 365ZM490 110L490 20L50 20L50 110L490 110Z"/>
<glyph unicode="&#xb2;" horiz-adv-x="311" d="M31 616C38 645 53 668 75 685C96 702 122 710 152 710C168 710 184 707 199 702C214 696 227 688 238 678C249 667 257 655 264 641C271 626 274 610 274 593C274 574 270 557 262 542C253 526 243 511 231 498L152 410L276 410L276 340L30 340L30 380L166 532C173 539 181 548 188 559C195 570 199 581 199 593C199 606 195 617 187 626C178 635 167 640 152 640C139 640 129 636 120 628C111 619 105 608 101 595L31 616Z"/>
<glyph unicode="&#xb3;" horiz-adv-x="303" d="M80 432C85 423 93 415 104 408C114 401 125 398 138 398C155 398 170 404 181 416C192 427 198 441 198 458C198 474 193 488 182 501C171 514 156 520 137 520C122 520 106 516 88 509L88 549L149 630L34 630L34 700L257 700L257 660L193 572C216 564 236 549 251 528C266 507 273 483 273 458C273 440 270 423 263 408C256 392 246 378 234 367C222 356 208 347 191 340C174 333 157 330 138 330C111 330 87 336 67 349C47 361 31 376 20 394L80 432Z"/>
<glyph unicode="&#xb4;" horiz-adv-x="310" d="M70 550L135 700L240 700L135 550L70 550Z"/>
<glyph unicode="&#xb5;" horiz-adv-x="610" d="M295 -10C282 -10 269 -9 258 -6C246 -3 235 1 225 6C215 10 206 15 199 20C191 25 185 30 180 35L180 -240L85 -240L85 470L180 470L180 215C180 191 182 172 187 158C192 143 198 131 207 121C218 108 231 98 246 91C261 84 278 80 295 80C326 80 353 87 375 101C396 115 415 130 430 147L430 470L525 470L525 0L433 0L433 43C428 38 421 32 412 26C403 20 392 14 381 9C369 4 356 -1 341 -5C326 -8 311 -10 295 -10Z"/>
<glyph unicode="&#xb6;" horiz-adv-x="685" d="M440 610L340 610L340 -200L245 -200L245 270C215 270 187 276 161 287C135 298 112 314 93 333C74 352 58 375 47 401C36 427 30 455 30 485C30 521 38 554 54 585C69 615 91 640 118 659C136 672 157 683 180 690C203 697 231 700 265 700L635 700L635 610L535 610L535 -200L440 -200L440 610ZM125 485C125 468 128 452 134 437C140 422 148 408 159 397C170 386 182 377 197 370C212 363 228 360 245 360L245 610C228 610 212 607 197 600C182 593 170 584 159 573C148 562 140 549 134 534C128 519 125 502 125 485Z"/>
<glyph unicode="&#xb7;" horiz-adv-x="340" d="M100 235C100 254 107 271 121 285C134 298 151 305 170 305C189 305 206 298 220 285C233 271 240 254 240 235C240 216 233 199 220 186C206 172 189 165 170 165C151 165 134 172 121 186C107 199 100 216 100 235Z"/>
<glyph unicode="&#xb8;" horiz-adv-x="275" d="M205 10L175 -140L70 -140L140 10L205 10Z"/>
<glyph unicode="&#xb9;" horiz-adv-x="235" d="M30 644L140 700L185 700L185 340L110 340L110 606L30 569L30 644Z"/>
<glyph unicode="&#xba;" horiz-adv-x="416" d="M292 549C292 576 284 599 269 617C254 634 233 643 208 643C183 643 162 634 147 617C132 599 124 576 124 549C124 523 132 501 147 484C162 466 183 457 208 457C233 457 254 466 269 484C284 501 292 523 292 549ZM50 550C50 572 54 593 62 612C69 631 80 648 94 663C108 678 125 689 144 698C163 706 185 710 208 710C231 710 253 706 272 698C291 689 308 678 322 663C336 648 347 631 355 612C362 593 366 572 366 550C366 528 362 507 355 488C347 469 336 452 322 437C308 422 291 411 272 403C253 394 231 390 208 390C185 390 163 394 144 403C125 411 108 422 94 437C80 452 69 469 62 488C54 507 50 528 50 550Z"/>
<glyph unicode="&#xbb;" horiz-adv-x="600" d="M424 240L270 430L386 430L520 265L520 215L386 50L270 50L424 240ZM194 240L40 430L156 430L290 265L290 215L156 50L40 50L194 240Z"/>
<glyph unicode="&#xbc;" horiz-adv-x="632" d="M30 644L140 700L185 700L185 340L110 340L110 606L30 569L30 644ZM65 0L474 700L560 700L151 0L65 0ZM556 360L556 147L617 147L617 77L556 77L556 0L481 0L481 77L320 77L320 117L511 360L556 360ZM481 147L481 213L431 147L481 147Z"/>
<glyph unicode="&#xbd;" horiz-adv-x="676" d="M30 644L140 700L185 700L185 340L110 340L110 606L30 569L30 644ZM65 0L474 700L560 700L151 0L65 0ZM396 276C403 305 418 328 440 345C461 362 487 370 517 370C533 370 549 367 564 362C579 356 592 348 603 338C614 327 622 315 629 301C636 286 639 270 639 253C639 234 635 217 627 202C618 186 608 171 596 158L517 70L641 70L641 0L395 0L395 40L531 192C538 199 546 208 553 219C560 230 564 241 564 253C564 266 560 277 552 286C543 295 532 300 517 300C504 300 494 296 485 288C476 279 470 268 466 255L396 276Z"/>
<glyph unicode="&#xbe;" horiz-adv-x="670" d="M80 432C85 423 93 415 104 408C114 401 125 398 138 398C155 398 170 404 181 416C192 427 198 441 198 458C198 474 193 488 182 501C171 514 156 520 137 520C122 520 106 516 88 509L88 549L149 630L34 630L34 700L257 700L257 660L193 572C216 564 236 549 251 528C266 507 273 483 273 458C273 440 270 423 263 408C256 392 246 378 234 367C222 356 208 347 191 340C174 333 157 330 138 330C111 330 87 336 67 349C47 361 31 376 20 394L80 432ZM103 0L512 700L598 700L189 0L103 0ZM594 360L594 147L655 147L655 77L594 77L594 0L519 0L519 77L358 77L358 117L549 360L594 360ZM519 147L519 213L469 147L519 147Z"/>
<glyph unicode="&#xbf;" horiz-adv-x="500" d="M435 -110C430 -130 421 -149 409 -166C397 -183 382 -198 365 -211C347 -223 327 -233 305 -240C283 -247 260 -250 236 -250C208 -250 182 -245 158 -236C134 -226 113 -213 96 -197C78 -180 64 -161 55 -139C45 -117 40 -93 40 -68C40 -43 44 -20 53 0C62 20 72 38 85 54C98 70 112 84 127 96C142 108 156 119 169 129C182 139 192 148 201 157C210 166 214 174 214 183C214 196 205 210 188 225L251 291C272 276 287 259 296 240C305 221 309 203 309 184C309 163 305 145 296 130C287 115 277 101 264 88C251 75 237 63 222 52C207 41 193 29 180 18C167 6 157 -7 148 -21C139 -34 135 -50 135 -68C135 -93 144 -115 163 -133C182 -151 206 -160 236 -160C263 -160 286 -153 307 -138C327 -123 340 -105 345 -84L435 -110ZM310 410C310 391 303 374 290 361C276 347 259 340 240 340C221 340 204 347 191 361C177 374 170 391 170 410C170 429 177 446 191 460C204 473 221 480 240 480C259 480 276 473 290 460C303 446 310 429 310 410Z"/>
<glyph unicode="&#xc0;" horiz-adv-x="660" d="M477 180L182 180L109 0L5 0L295 700L365 700L655 0L551 0L477 180ZM222 275L438 275L330 535L222 275ZM295 750L190 900L295 900L360 750L295 750Z"/>
<glyph unicode="&#xc1;" horiz-adv-x="660" d="M477 180L182 180L109 0L5 0L295 700L365 700L655 0L551 0L477 180ZM222 275L438 275L330 535L222 275ZM300 750L365 900L470 900L365 750L300 750Z"/>
<glyph unicode="&#xc2;" horiz-adv-x="660" d="M477 180L182 180L109 0L5 0L295 700L365 700L655 0L551 0L477 180ZM222 275L438 275L330 535L222 275ZM180 750L275 900L385 900L480 750L415 750L330 844L245 750L180 750Z"/>
<glyph unicode="&#xc3;" horiz-adv-x="660" d="M477 180L182 180L109 0L5 0L295 700L365 700L655 0L551 0L477 180ZM222 275L438 275L330 535L222 275ZM160 781C161 796 164 810 169 823C174 836 180 848 189 858C198 868 208 876 220 882C232 887 246 890 261 890C274 890 286 888 298 883C310 878 322 873 333 868C344 862 355 857 366 852C377 847 387 845 397 845C408 845 417 849 423 857C428 864 432 875 435 890L500 869C499 854 497 840 492 827C487 814 480 802 471 792C462 782 452 774 440 769C427 763 414 760 399 760C386 760 374 762 362 767C350 772 338 777 327 783C316 788 305 793 294 798C283 803 273 805 263 805C252 805 243 801 238 794C232 786 228 775 225 760L160 781Z"/>
<glyph unicode="&#xc4;" horiz-adv-x="660" d="M477 180L182 180L109 0L5 0L295 700L365 700L655 0L551 0L477 180ZM222 275L438 275L330 535L222 275ZM175 817C175 834 181 849 193 862C205 874 220 880 237 880C254 880 269 874 282 862C294 849 300 834 300 817C300 800 294 785 282 773C269 761 254 755 237 755C220 755 205 761 193 773C181 785 175 800 175 817ZM360 817C360 834 366 849 378 862C390 874 405 880 422 880C439 880 454 874 467 862C479 849 485 834 485 817C485 800 479 785 467 773C454 761 439 755 422 755C405 755 390 761 378 773C366 785 360 800 360 817Z"/>
<glyph unicode="&#xc5;" horiz-adv-x="660" d="M477 180L182 180L109 0L5 0L295 700L365 700L655 0L551 0L477 180ZM222 275L438 275L330 535L222 275ZM230 830C230 858 240 882 259 901C278 920 302 930 330 930C358 930 382 920 401 901C420 882 430 858 430 830C430 802 420 778 401 759C382 740 358 730 330 730C302 730 278 740 259 759C240 778 230 802 230 830ZM290 830C290 819 294 809 302 802C309 794 319 790 330 790C341 790 351 794 359 802C366 809 370 819 370 830C370 841 366 851 359 859C351 866 341 870 330 870C319 870 309 866 302 859C294 851 290 841 290 830Z"/>
<glyph unicode="&#xc6;" horiz-adv-x="910" d="M460 0L460 180L202 180L94 0L-20 0L398 700L860 700L860 605L560 605L560 425L790 425L790 330L560 330L560 95L870 95L870 0L460 0ZM258 275L460 275L460 615L258 275Z"/>
<glyph unicode="&#xc7;" horiz-adv-x="690" d="M35 350C35 401 44 448 62 492C80 535 105 573 137 606C168 638 206 663 249 682C292 701 338 710 389 710C439 710 487 701 532 682C577 663 614 636 645 602L578 536C557 559 530 578 497 593C463 608 427 615 389 615C353 615 320 608 289 595C258 582 232 563 209 540C186 516 168 488 155 456C142 423 135 388 135 350C135 311 142 275 155 242C168 209 187 181 211 158C234 135 262 117 294 104C326 91 361 85 398 85C421 85 443 88 464 94C484 100 502 108 519 117C536 126 551 137 564 149C577 160 589 172 599 184L670 120C642 84 606 54 562 31C518 8 471 -6 421 -9L395 -140L290 -140L352 -7C306 -2 264 10 225 30C186 50 152 76 124 107C96 138 74 175 59 216C43 257 35 302 35 350Z"/>
<glyph unicode="&#xc8;" horiz-adv-x="540" d="M420 425L420 330L190 330L190 95L500 95L500 0L90 0L90 700L490 700L490 605L190 605L190 425L420 425ZM270 750L165 900L270 900L335 750L270 750Z"/>
<glyph unicode="&#xc9;" horiz-adv-x="540" d="M420 425L420 330L190 330L190 95L500 95L500 0L90 0L90 700L490 700L490 605L190 605L190 425L420 425ZM255 750L320 900L425 900L320 750L255 750Z"/>
<glyph unicode="&#xca;" horiz-adv-x="540" d="M420 425L420 330L190 330L190 95L500 95L500 0L90 0L90 700L490 700L490 605L190 605L190 425L420 425ZM140 750L235 900L345 900L440 750L375 750L290 844L205 750L140 750Z"/>
<glyph unicode="&#xcb;" horiz-adv-x="540" d="M420 425L420 330L190 330L190 95L500 95L500 0L90 0L90 700L490 700L490 605L190 605L190 425L420 425ZM135 817C135 834 141 849 153 862C165 874 180 880 197 880C214 880 229 874 242 862C254 849 260 834 260 817C260 800 254 785 242 773C229 761 214 755 197 755C180 755 165 761 153 773C141 785 135 800 135 817ZM320 817C320 834 326 849 338 862C350 874 365 880 382 880C399 880 414 874 427 862C439 849 445 834 445 817C445 800 439 785 427 773C414 761 399 755 382 755C365 755 350 761 338 773C326 785 320 800 320 817Z"/>
<glyph unicode="&#xcc;" horiz-adv-x="280" d="M90 700L190 700L190 0L90 0L90 700ZM116 750L11 900L116 900L181 750L116 750Z"/>
<glyph unicode="&#xcd;" horiz-adv-x="280" d="M90 700L190 700L190 0L90 0L90 700ZM100 750L165 900L270 900L165 750L100 750Z"/>
<glyph unicode="&#xce;" horiz-adv-x="280" d="M90 700L190 700L190 0L90 0L90 700ZM-9 750L86 900L196 900L291 750L226 750L141 844L56 750L-9 750Z"/>
<glyph unicode="&#xcf;" horiz-adv-x="280" d="M90 700L190 700L190 0L90 0L90 700ZM-14 817C-14 834 -8 849 4 862C16 874 31 880 48 880C65 880 80 874 93 862C105 849 111 834 111 817C111 800 105 785 93 773C80 761 65 755 48 755C31 755 16 761 4 773C-8 785 -14 800 -14 817ZM171 817C171 834 177 849 189 862C201 874 216 880 233 880C250 880 265 874 278 862C290 849 296 834 296 817C296 800 290 785 278 773C265 761 250 755 233 755C216 755 201 761 189 773C177 785 171 800 171 817Z"/>
<glyph unicode="&#xd0;" horiz-adv-x="715" d="M90 0L90 330L-10 330L-10 425L90 425L90 700L300 700C356 700 403 694 441 683C478 672 511 655 540 634C583 602 618 561 643 512C668 463 680 409 680 350C680 291 668 237 643 188C618 139 584 98 541 66C512 45 479 28 441 17C403 6 356 0 300 0L90 0ZM580 350C580 389 573 426 558 460C543 494 522 523 495 546C473 565 447 580 416 590C385 600 344 605 295 605L190 605L190 425L390 425L390 330L190 330L190 95L295 95C344 95 385 100 416 110C447 120 473 135 495 154C522 177 543 206 558 240C573 274 580 311 580 350Z"/>
<glyph unicode="&#xd1;" horiz-adv-x="770" d="M190 514L190 0L90 0L90 700L160 700L580 186L580 700L680 700L680 0L610 0L190 514ZM214 781C215 796 218 810 223 823C228 836 234 848 243 858C252 868 262 876 274 882C286 887 300 890 315 890C328 890 340 888 352 883C364 878 376 873 387 868C398 862 409 857 420 852C431 847 441 845 451 845C462 845 471 849 477 857C482 864 486 875 489 890L554 869C553 854 551 840 546 827C541 814 534 802 525 792C516 782 506 774 494 769C481 763 468 760 453 760C440 760 428 762 416 767C404 772 392 777 381 783C370 788 359 793 348 798C337 803 327 805 317 805C306 805 297 801 292 794C286 786 282 775 279 760L214 781Z"/>
<glyph unicode="&#xd2;" horiz-adv-x="770" d="M35 350C35 401 44 448 62 492C80 536 105 574 136 607C167 639 204 664 247 683C290 701 336 710 385 710C434 710 480 701 523 683C566 664 603 639 634 607C665 574 690 536 708 492C726 448 735 401 735 350C735 299 726 251 708 208C690 164 665 126 634 94C603 61 566 36 523 18C480 -1 434 -10 385 -10C336 -10 290 -1 247 18C204 36 167 61 136 94C105 126 80 164 62 208C44 251 35 299 35 350ZM135 350C135 312 141 277 154 245C167 212 184 184 207 161C229 137 255 118 286 105C316 92 349 85 385 85C421 85 454 92 485 105C515 118 541 137 564 161C586 184 603 212 616 245C629 277 635 312 635 350C635 388 629 423 616 456C603 488 586 516 564 540C541 563 515 582 485 595C454 608 421 615 385 615C349 615 316 608 286 595C255 582 229 563 207 540C184 516 167 488 154 456C141 423 135 388 135 350ZM355 750L250 900L355 900L420 750L355 750Z"/>
<glyph unicode="&#xd3;" horiz-adv-x="770" d="M35 350C35 401 44 448 62 492C80 536 105 574 136 607C167 639 204 664 247 683C290 701 336 710 385 710C434 710 480 701 523 683C566 664 603 639 634 607C665 574 690 536 708 492C726 448 735 401 735 350C735 299 726 251 708 208C690 164 665 126 634 94C603 61 566 36 523 18C480 -1 434 -10 385 -10C336 -10 290 -1 247 18C204 36 167 61 136 94C105 126 80 164 62 208C44 251 35 299 35 350ZM135 350C135 312 141 277 154 245C167 212 184 184 207 161C229 137 255 118 286 105C316 92 349 85 385 85C421 85 454 92 485 105C515 118 541 137 564 161C586 184 603 212 616 245C629 277 635 312 635 350C635 388 629 423 616 456C603 488 586 516 564 540C541 563 515 582 485 595C454 608 421 615 385 615C349 615 316 608 286 595C255 582 229 563 207 540C184 516 167 488 154 456C141 423 135 388 135 350ZM350 750L415 900L520 900L415 750L350 750Z"/>
<glyph unicode="&#xd4;" horiz-adv-x="770" d="M35 350C35 401 44 448 62 492C80 536 105 574 136 607C167 639 204 664 247 683C290 701 336 710 385 710C434 710 480 701 523 683C566 664 603 639 634 607C665 574 690 536 708 492C726 448 735 401 735 350C735 299 726 251 708 208C690 164 665 126 634 94C603 61 566 36 523 18C480 -1 434 -10 385 -10C336 -10 290 -1 247 18C204 36 167 61 136 94C105 126 80 164 62 208C44 251 35 299 35 350ZM135 350C135 312 141 277 154 245C167 212 184 184 207 161C229 137 255 118 286 105C316 92 349 85 385 85C421 85 454 92 485 105C515 118 541 137 564 161C586 184 603 212 616 245C629 277 635 312 635 350C635 388 629 423 616 456C603 488 586 516 564 540C541 563 515 582 485 595C454 608 421 615 385 615C349 615 316 608 286 595C255 582 229 563 207 540C184 516 167 488 154 456C141 423 135 388 135 350ZM235 750L330 900L440 900L535 750L470 750L385 844L300 750L235 750Z"/>
<glyph unicode="&#xd5;" horiz-adv-x="770" d="M35 350C35 401 44 448 62 492C80 536 105 574 136 607C167 639 204 664 247 683C290 701 336 710 385 710C434 710 480 701 523 683C566 664 603 639 634 607C665 574 690 536 708 492C726 448 735 401 735 350C735 299 726 251 708 208C690 164 665 126 634 94C603 61 566 36 523 18C480 -1 434 -10 385 -10C336 -10 290 -1 247 18C204 36 167 61 136 94C105 126 80 164 62 208C44 251 35 299 35 350ZM135 350C135 312 141 277 154 245C167 212 184 184 207 161C229 137 255 118 286 105C316 92 349 85 385 85C421 85 454 92 485 105C515 118 541 137 564 161C586 184 603 212 616 245C629 277 635 312 635 350C635 388 629 423 616 456C603 488 586 516 564 540C541 563 515 582 485 595C454 608 421 615 385 615C349 615 316 608 286 595C255 582 229 563 207 540C184 516 167 488 154 456C141 423 135 388 135 350ZM215 781C216 796 219 810 224 823C229 836 235 848 244 858C253 868 263 876 275 882C287 887 301 890 316 890C329 890 341 888 353 883C365 878 377 873 388 868C399 862 410 857 421 852C432 847 442 845 452 845C463 845 472 849 478 857C483 864 487 875 490 890L555 869C554 854 552 840 547 827C542 814 535 802 526 792C517 782 507 774 495 769C482 763 469 760 454 760C441 760 429 762 417 767C405 772 393 777 382 783C371 788 360 793 349 798C338 803 328 805 318 805C307 805 298 801 293 794C287 786 283 775 280 760L215 781Z"/>
<glyph unicode="&#xd6;" horiz-adv-x="770" d="M35 350C35 401 44 448 62 492C80 536 105 574 136 607C167 639 204 664 247 683C290 701 336 710 385 710C434 710 480 701 523 683C566 664 603 639 634 607C665 574 690 536 708 492C726 448 735 401 735 350C735 299 726 251 708 208C690 164 665 126 634 94C603 61 566 36 523 18C480 -1 434 -10 385 -10C336 -10 290 -1 247 18C204 36 167 61 136 94C105 126 80 164 62 208C44 251 35 299 35 350ZM135 350C135 312 141 277 154 245C167 212 184 184 207 161C229 137 255 118 286 105C316 92 349 85 385 85C421 85 454 92 485 105C515 118 541 137 564 161C586 184 603 212 616 245C629 277 635 312 635 350C635 388 629 423 616 456C603 488 586 516 564 540C541 563 515 582 485 595C454 608 421 615 385 615C349 615 316 608 286 595C255 582 229 563 207 540C184 516 167 488 154 456C141 423 135 388 135 350ZM230 817C230 834 236 849 248 862C260 874 275 880 292 880C309 880 324 874 337 862C349 849 355 834 355 817C355 800 349 785 337 773C324 761 309 755 292 755C275 755 260 761 248 773C236 785 230 800 230 817ZM415 817C415 834 421 849 433 862C445 874 460 880 477 880C494 880 509 874 522 862C534 849 540 834 540 817C540 800 534 785 522 773C509 761 494 755 477 755C460 755 445 761 433 773C421 785 415 800 415 817Z"/>
<glyph unicode="&#xd7;" horiz-adv-x="548" d="M274 324L419 469L483 405L338 260L483 115L419 51L274 196L129 51L65 115L210 260L65 405L129 469L274 324Z"/>
<glyph unicode="&#xd8;" horiz-adv-x="770" d="M35 350C35 401 44 448 62 492C80 536 105 574 136 607C167 639 204 664 247 683C290 701 336 710 385 710C422 710 456 705 489 695C521 685 551 671 579 652L628 710L747 710L648 591C675 559 697 523 712 482C727 441 735 397 735 350C735 299 726 251 708 208C690 164 665 126 634 94C603 61 566 36 523 18C480 -1 434 -10 385 -10C348 -10 314 -5 282 5C249 15 219 29 191 47L142 -10L22 -10L122 108C94 140 73 176 58 217C43 258 35 302 35 350ZM135 350C135 318 140 288 149 260C158 232 170 207 186 185L517 577C498 589 477 598 455 605C433 612 410 615 385 615C349 615 316 608 286 595C255 582 229 563 207 540C184 516 167 488 154 456C141 423 135 388 135 350ZM635 350C635 382 631 412 622 440C613 467 600 492 583 515L253 122C292 97 336 85 385 85C421 85 454 92 485 105C515 118 541 137 564 161C586 184 603 212 616 245C629 277 635 312 635 350Z"/>
<glyph unicode="&#xd9;" horiz-adv-x="740" d="M370 -10C327 -10 286 -2 249 15C212 31 180 53 153 82C130 107 113 136 100 169C87 202 80 243 80 290L80 700L180 700L180 285C180 252 184 224 192 203C199 181 210 162 224 147C241 128 263 113 288 102C313 91 340 85 370 85C400 85 428 91 453 102C478 113 499 128 516 147C530 162 541 181 549 203C556 224 560 252 560 285L560 700L660 700L660 290C660 243 654 202 641 169C628 136 610 107 587 82C560 53 528 31 491 15C454 -2 413 -10 370 -10ZM340 750L235 900L340 900L405 750L340 750Z"/>
<glyph unicode="&#xda;" horiz-adv-x="740" d="M370 -10C327 -10 286 -2 249 15C212 31 180 53 153 82C130 107 113 136 100 169C87 202 80 243 80 290L80 700L180 700L180 285C180 252 184 224 192 203C199 181 210 162 224 147C241 128 263 113 288 102C313 91 340 85 370 85C400 85 428 91 453 102C478 113 499 128 516 147C530 162 541 181 549 203C556 224 560 252 560 285L560 700L660 700L660 290C660 243 654 202 641 169C628 136 610 107 587 82C560 53 528 31 491 15C454 -2 413 -10 370 -10ZM335 750L400 900L505 900L400 750L335 750Z"/>
<glyph unicode="&#xdb;" horiz-adv-x="740" d="M370 -10C327 -10 286 -2 249 15C212 31 180 53 153 82C130 107 113 136 100 169C87 202 80 243 80 290L80 700L180 700L180 285C180 252 184 224 192 203C199 181 210 162 224 147C241 128 263 113 288 102C313 91 340 85 370 85C400 85 428 91 453 102C478 113 499 128 516 147C530 162 541 181 549 203C556 224 560 252 560 285L560 700L660 700L660 290C660 243 654 202 641 169C628 136 610 107 587 82C560 53 528 31 491 15C454 -2 413 -10 370 -10ZM220 750L315 900L425 900L520 750L455 750L370 844L285 750L220 750Z"/>
<glyph unicode="&#xdc;" horiz-adv-x="740" d="M370 -10C327 -10 286 -2 249 15C212 31 180 53 153 82C130 107 113 136 100 169C87 202 80 243 80 290L80 700L180 700L180 285C180 252 184 224 192 203C199 181 210 162 224 147C241 128 263 113 288 102C313 91 340 85 370 85C400 85 428 91 453 102C478 113 499 128 516 147C530 162 541 181 549 203C556 224 560 252 560 285L560 700L660 700L660 290C660 243 654 202 641 169C628 136 610 107 587 82C560 53 528 31 491 15C454 -2 413 -10 370 -10ZM215 817C215 834 221 849 233 862C245 874 260 880 277 880C294 880 309 874 322 862C334 849 340 834 340 817C340 800 334 785 322 773C309 761 294 755 277 755C260 755 245 761 233 773C221 785 215 800 215 817ZM400 817C400 834 406 849 418 862C430 874 445 880 462 880C479 880 494 874 507 862C519 849 525 834 525 817C525 800 519 785 507 773C494 761 479 755 462 755C445 755 430 761 418 773C406 785 400 800 400 817Z"/>
<glyph unicode="&#xdd;" horiz-adv-x="600" d="M350 320L350 0L250 0L250 320L10 700L122 700L300 419L478 700L590 700L350 320ZM265 750L330 900L435 900L330 750L265 750Z"/>
<glyph unicode="&#xde;" horiz-adv-x="600" d="M350 250C374 250 393 253 407 259C421 264 433 272 442 281C451 290 458 301 463 313C468 324 470 337 470 350C470 363 468 376 463 388C458 399 451 410 442 419C433 428 421 436 407 442C393 447 374 450 350 450L190 450L190 250L350 250ZM355 545C389 545 418 541 441 533C464 525 484 514 501 499C522 481 539 459 552 434C564 408 570 380 570 350C570 320 564 292 552 267C539 241 522 219 501 201C484 186 464 175 441 167C418 159 389 155 355 155L190 155L190 0L90 0L90 700L190 700L190 545L355 545Z"/>
<glyph unicode="&#xdf;" horiz-adv-x="590" d="M265 91C282 84 299 80 318 80C337 80 355 83 371 90C387 97 401 106 412 118C423 130 432 144 439 160C445 175 448 192 448 210C448 227 445 244 439 259C433 274 425 287 414 298C402 311 387 322 369 329C351 336 327 340 298 340L260 340L260 430L264 430C285 430 303 432 317 437C330 442 342 448 351 456C361 465 369 476 375 489C381 502 384 515 384 530C384 557 375 581 356 601C337 620 314 630 286 630C271 630 256 627 242 621C227 615 215 606 206 595C199 586 193 576 188 563C183 550 180 533 180 510L180 0L85 0L85 510C85 544 89 573 98 596C107 619 119 639 134 656C152 676 174 692 199 703C224 714 252 720 282 720C309 720 334 715 358 705C382 695 403 682 421 665C439 648 453 627 464 604C474 581 479 556 479 530C479 507 474 484 465 462C456 439 443 420 426 405C462 386 491 360 513 326C534 291 545 253 545 210C545 180 540 152 529 125C518 98 502 75 483 55C463 35 440 19 413 8C386 -4 356 -10 325 -10C292 -10 260 -3 229 12L265 91Z"/>
<glyph unicode="&#xe0;" horiz-adv-x="605" d="M428 43C409 26 387 13 362 4C337 -6 311 -10 283 -10C262 -10 241 -7 220 -2C199 4 181 12 165 21C129 42 100 72 78 109C56 146 45 188 45 235C45 282 56 325 79 362C101 399 130 429 166 450C182 459 200 467 219 472C238 477 259 480 281 480C308 480 334 476 359 468C384 459 407 446 428 427L428 470L520 470L520 0L428 0L428 43ZM425 323C410 342 392 358 369 371C346 384 320 390 291 390C268 390 248 386 229 378C210 369 195 358 182 344C169 329 158 313 151 294C144 275 140 256 140 235C140 214 144 194 152 175C159 156 170 140 184 126C198 112 215 101 234 93C253 84 273 80 296 80C320 80 344 86 367 98C390 109 409 126 425 147L425 323ZM307 550L202 700L307 700L372 550L307 550Z"/>
<glyph unicode="&#xe1;" horiz-adv-x="605" d="M428 43C409 26 387 13 362 4C337 -6 311 -10 283 -10C262 -10 241 -7 220 -2C199 4 181 12 165 21C129 42 100 72 78 109C56 146 45 188 45 235C45 282 56 325 79 362C101 399 130 429 166 450C182 459 200 467 219 472C238 477 259 480 281 480C308 480 334 476 359 468C384 459 407 446 428 427L428 470L520 470L520 0L428 0L428 43ZM425 323C410 342 392 358 369 371C346 384 320 390 291 390C268 390 248 386 229 378C210 369 195 358 182 344C169 329 158 313 151 294C144 275 140 256 140 235C140 214 144 194 152 175C159 156 170 140 184 126C198 112 215 101 234 93C253 84 273 80 296 80C320 80 344 86 367 98C390 109 409 126 425 147L425 323ZM252 550L317 700L422 700L317 550L252 550Z"/>
<glyph unicode="&#xe2;" horiz-adv-x="605" d="M428 43C409 26 387 13 362 4C337 -6 311 -10 283 -10C262 -10 241 -7 220 -2C199 4 181 12 165 21C129 42 100 72 78 109C56 146 45 188 45 235C45 282 56 325 79 362C101 399 130 429 166 450C182 459 200 467 219 472C238 477 259 480 281 480C308 480 334 476 359 468C384 459 407 446 428 427L428 470L520 470L520 0L428 0L428 43ZM425 323C410 342 392 358 369 371C346 384 320 390 291 390C268 390 248 386 229 378C210 369 195 358 182 344C169 329 158 313 151 294C144 275 140 256 140 235C140 214 144 194 152 175C159 156 170 140 184 126C198 112 215 101 234 93C253 84 273 80 296 80C320 80 344 86 367 98C390 109 409 126 425 147L425 323ZM157 550L252 700L362 700L457 550L392 550L307 644L222 550L157 550Z"/>
<glyph unicode="&#xe3;" horiz-adv-x="605" d="M428 43C409 26 387 13 362 4C337 -6 311 -10 283 -10C262 -10 241 -7 220 -2C199 4 181 12 165 21C129 42 100 72 78 109C56 146 45 188 45 235C45 282 56 325 79 362C101 399 130 429 166 450C182 459 200 467 219 472C238 477 259 480 281 480C308 480 334 476 359 468C384 459 407 446 428 427L428 470L520 470L520 0L428 0L428 43ZM425 323C410 342 392 358 369 371C346 384 320 390 291 390C268 390 248 386 229 378C210 369 195 358 182 344C169 329 158 313 151 294C144 275 140 256 140 235C140 214 144 194 152 175C159 156 170 140 184 126C198 112 215 101 234 93C253 84 273 80 296 80C320 80 344 86 367 98C390 109 409 126 425 147L425 323ZM131 581C132 596 135 610 140 623C145 636 151 648 160 658C169 668 179 676 191 682C203 687 217 690 232 690C245 690 257 688 269 683C281 678 293 673 304 668C315 662 326 657 337 652C348 647 358 645 368 645C379 645 388 649 394 657C399 664 403 675 406 690L471 669C470 654 468 640 463 627C458 614 451 602 442 592C433 582 423 574 411 569C398 563 385 560 370 560C357 560 345 562 333 567C321 572 309 577 298 583C287 588 276 593 265 598C254 603 244 605 234 605C223 605 214 601 209 594C203 586 199 575 196 560L131 581Z"/>
<glyph unicode="&#xe4;" horiz-adv-x="605" d="M428 43C409 26 387 13 362 4C337 -6 311 -10 283 -10C262 -10 241 -7 220 -2C199 4 181 12 165 21C129 42 100 72 78 109C56 146 45 188 45 235C45 282 56 325 79 362C101 399 130 429 166 450C182 459 200 467 219 472C238 477 259 480 281 480C308 480 334 476 359 468C384 459 407 446 428 427L428 470L520 470L520 0L428 0L428 43ZM425 323C410 342 392 358 369 371C346 384 320 390 291 390C268 390 248 386 229 378C210 369 195 358 182 344C169 329 158 313 151 294C144 275 140 256 140 235C140 214 144 194 152 175C159 156 170 140 184 126C198 112 215 101 234 93C253 84 273 80 296 80C320 80 344 86 367 98C390 109 409 126 425 147L425 323ZM142 617C142 634 148 649 160 662C172 674 187 680 204 680C221 680 236 674 249 662C261 649 267 634 267 617C267 600 261 585 249 573C236 561 221 555 204 555C187 555 172 561 160 573C148 585 142 600 142 617ZM327 617C327 634 333 649 345 662C357 674 372 680 389 680C406 680 421 674 434 662C446 649 452 634 452 617C452 600 446 585 434 573C421 561 406 555 389 555C372 555 357 561 345 573C333 585 327 600 327 617Z"/>
<glyph unicode="&#xe5;" horiz-adv-x="605" d="M428 43C409 26 387 13 362 4C337 -6 311 -10 283 -10C262 -10 241 -7 220 -2C199 4 181 12 165 21C129 42 100 72 78 109C56 146 45 188 45 235C45 282 56 325 79 362C101 399 130 429 166 450C182 459 200 467 219 472C238 477 259 480 281 480C308 480 334 476 359 468C384 459 407 446 428 427L428 470L520 470L520 0L428 0L428 43ZM425 323C410 342 392 358 369 371C346 384 320 390 291 390C268 390 248 386 229 378C210 369 195 358 182 344C169 329 158 313 151 294C144 275 140 256 140 235C140 214 144 194 152 175C159 156 170 140 184 126C198 112 215 101 234 93C253 84 273 80 296 80C320 80 344 86 367 98C390 109 409 126 425 147L425 323ZM197 630C197 658 207 682 226 701C245 720 269 730 297 730C325 730 349 720 368 701C387 682 397 658 397 630C397 602 387 578 368 559C349 540 325 530 297 530C269 530 245 540 226 559C207 578 197 602 197 630ZM257 630C257 619 261 609 269 602C276 594 286 590 297 590C308 590 318 594 326 602C333 609 337 619 337 630C337 641 333 651 326 659C318 666 308 670 297 670C286 670 276 666 269 659C261 651 257 641 257 630Z"/>
<glyph unicode="&#xe6;" horiz-adv-x="929" d="M428 43C409 26 387 13 362 4C337 -6 311 -10 283 -10C262 -10 241 -7 220 -2C199 4 181 12 165 21C129 42 100 72 78 109C56 146 45 188 45 235C45 282 56 325 79 362C101 399 130 429 166 450C182 459 200 467 219 472C238 477 259 480 281 480C308 480 334 476 359 468C384 459 407 446 428 427L428 470L512 470L512 427C531 444 552 457 576 466C599 475 625 480 653 480C685 480 715 474 743 461C771 448 796 431 817 409C838 387 854 361 866 332C878 302 884 270 884 235C884 233 884 230 884 227C884 224 884 220 883 215L516 215C518 195 523 177 532 160C541 143 552 128 567 115C581 102 597 91 616 84C635 77 655 73 676 73C693 73 708 75 721 79C734 83 746 88 757 94C768 100 777 107 786 115C794 122 801 130 808 137L870 78C853 56 828 36 796 18C764 -1 725 -10 678 -10C646 -10 616 -5 588 7C559 18 534 33 512 54L512 0L428 0L428 43ZM425 323C410 342 392 358 369 371C346 384 320 390 291 390C268 390 248 386 229 378C210 369 195 358 182 344C169 329 158 313 151 294C144 275 140 256 140 235C140 214 144 194 152 175C159 156 170 140 184 126C198 112 215 101 234 93C253 84 273 80 296 80C320 80 344 86 367 98C390 109 409 126 425 147L425 323ZM657 397C625 397 597 388 572 369C547 350 530 326 521 295L785 295C781 310 775 323 767 336C758 349 748 360 737 369C726 378 713 385 700 390C686 395 672 397 657 397Z"/>
<glyph unicode="&#xe7;" horiz-adv-x="530" d="M505 100C488 72 464 48 433 29C402 10 367 -2 330 -7L304 -140L199 -140L260 -7C229 -3 200 6 174 20C147 33 125 51 106 72C87 93 72 118 61 146C50 173 45 203 45 235C45 270 51 302 64 332C76 362 93 388 115 410C136 432 162 449 192 462C222 474 255 480 290 480C331 480 370 471 405 452C440 433 468 409 490 378L420 319C407 337 389 353 368 368C346 383 320 390 290 390C269 390 249 386 231 379C212 371 196 360 183 346C170 332 159 316 152 297C144 278 140 257 140 235C140 212 144 191 152 172C159 153 170 136 184 123C198 110 215 99 234 92C253 84 273 80 296 80C327 80 354 87 376 102C398 116 417 133 432 153L505 100Z"/>
<glyph unicode="&#xe8;" horiz-adv-x="545" d="M137 215C138 195 143 177 152 160C160 143 171 128 184 115C197 102 213 91 231 84C249 77 268 73 289 73C324 73 352 80 373 94C394 107 411 122 424 137L486 78C469 55 443 35 410 17C377 -1 336 -10 288 -10C254 -10 222 -4 193 9C163 21 137 38 115 60C93 81 76 107 64 137C51 167 45 200 45 235C45 270 51 303 62 333C73 363 89 389 110 411C130 432 154 449 182 462C210 474 241 480 274 480C307 480 337 474 365 462C392 449 416 432 436 410C456 388 472 362 483 332C494 302 500 270 500 235C500 233 500 230 500 227C500 224 500 220 499 215L137 215ZM277 397C246 397 219 388 194 369C169 350 153 326 145 295L401 295C398 310 392 323 384 336C375 349 366 360 355 369C344 378 331 385 318 390C305 395 291 397 277 397ZM262 550L157 700L262 700L327 550L262 550Z"/>
<glyph unicode="&#xe9;" horiz-adv-x="545" d="M137 215C138 195 143 177 152 160C160 143 171 128 184 115C197 102 213 91 231 84C249 77 268 73 289 73C324 73 352 80 373 94C394 107 411 122 424 137L486 78C469 55 443 35 410 17C377 -1 336 -10 288 -10C254 -10 222 -4 193 9C163 21 137 38 115 60C93 81 76 107 64 137C51 167 45 200 45 235C45 270 51 303 62 333C73 363 89 389 110 411C130 432 154 449 182 462C210 474 241 480 274 480C307 480 337 474 365 462C392 449 416 432 436 410C456 388 472 362 483 332C494 302 500 270 500 235C500 233 500 230 500 227C500 224 500 220 499 215L137 215ZM277 397C246 397 219 388 194 369C169 350 153 326 145 295L401 295C398 310 392 323 384 336C375 349 366 360 355 369C344 378 331 385 318 390C305 395 291 397 277 397ZM237 550L302 700L407 700L302 550L237 550Z"/>
<glyph unicode="&#xea;" horiz-adv-x="545" d="M137 215C138 195 143 177 152 160C160 143 171 128 184 115C197 102 213 91 231 84C249 77 268 73 289 73C324 73 352 80 373 94C394 107 411 122 424 137L486 78C469 55 443 35 410 17C377 -1 336 -10 288 -10C254 -10 222 -4 193 9C163 21 137 38 115 60C93 81 76 107 64 137C51 167 45 200 45 235C45 270 51 303 62 333C73 363 89 389 110 411C130 432 154 449 182 462C210 474 241 480 274 480C307 480 337 474 365 462C392 449 416 432 436 410C456 388 472 362 483 332C494 302 500 270 500 235C500 233 500 230 500 227C500 224 500 220 499 215L137 215ZM277 397C246 397 219 388 194 369C169 350 153 326 145 295L401 295C398 310 392 323 384 336C375 349 366 360 355 369C344 378 331 385 318 390C305 395 291 397 277 397ZM127 550L222 700L332 700L427 550L362 550L277 644L192 550L127 550Z"/>
<glyph unicode="&#xeb;" horiz-adv-x="545" d="M137 215C138 195 143 177 152 160C160 143 171 128 184 115C197 102 213 91 231 84C249 77 268 73 289 73C324 73 352 80 373 94C394 107 411 122 424 137L486 78C469 55 443 35 410 17C377 -1 336 -10 288 -10C254 -10 222 -4 193 9C163 21 137 38 115 60C93 81 76 107 64 137C51 167 45 200 45 235C45 270 51 303 62 333C73 363 89 389 110 411C130 432 154 449 182 462C210 474 241 480 274 480C307 480 337 474 365 462C392 449 416 432 436 410C456 388 472 362 483 332C494 302 500 270 500 235C500 233 500 230 500 227C500 224 500 220 499 215L137 215ZM277 397C246 397 219 388 194 369C169 350 153 326 145 295L401 295C398 310 392 323 384 336C375 349 366 360 355 369C344 378 331 385 318 390C305 395 291 397 277 397ZM117 617C117 634 123 649 135 662C147 674 162 680 179 680C196 680 211 674 224 662C236 649 242 634 242 617C242 600 236 585 224 573C211 561 196 555 179 555C162 555 147 561 135 573C123 585 117 600 117 617ZM302 617C302 634 308 649 320 662C332 674 347 680 364 680C381 680 396 674 409 662C421 649 427 634 427 617C427 600 421 585 409 573C396 561 381 555 364 555C347 555 332 561 320 573C308 585 302 600 302 617Z"/>
<glyph unicode="&#xec;" horiz-adv-x="265" d="M85 470L180 470L180 0L85 0L85 470ZM116 550L11 700L116 700L181 550L116 550Z"/>
<glyph unicode="&#xed;" horiz-adv-x="265" d="M85 470L180 470L180 0L85 0L85 470ZM85 550L150 700L255 700L150 550L85 550Z"/>
<glyph unicode="&#xee;" horiz-adv-x="265" d="M85 470L180 470L180 0L85 0L85 470ZM-17 550L78 700L188 700L283 550L218 550L133 644L48 550L-17 550Z"/>
<glyph unicode="&#xef;" horiz-adv-x="265" d="M85 470L180 470L180 0L85 0L85 470ZM-22 617C-22 634 -16 649 -4 662C8 674 23 680 40 680C57 680 72 674 85 662C97 649 103 634 103 617C103 600 97 585 85 573C72 561 57 555 40 555C23 555 8 561 -4 573C-16 585 -22 600 -22 617ZM163 617C163 634 169 649 181 662C193 674 208 680 225 680C242 680 257 674 270 662C282 649 288 634 288 617C288 600 282 585 270 573C257 561 242 555 225 555C208 555 193 561 181 573C169 585 163 600 163 617Z"/>
<glyph unicode="&#xf0;" horiz-adv-x="576" d="M182 501L137 569L217 620L158 710L269 710L295 669L375 720L420 652L340 601L460 421C481 389 499 357 512 326C525 295 531 264 531 235C531 201 525 169 513 140C500 110 483 84 462 62C440 40 414 23 385 10C355 -4 323 -10 288 -10C253 -10 221 -4 192 9C162 22 136 39 115 62C93 84 76 110 64 140C51 169 45 201 45 235C45 269 51 301 63 331C75 360 92 386 114 408C135 430 161 448 191 461C220 474 253 480 288 480C291 480 295 480 299 480C303 479 307 479 311 478L262 552L182 501ZM288 390C266 390 246 386 228 378C210 370 195 359 182 345C169 331 158 315 151 296C144 277 140 256 140 235C140 214 144 194 151 175C158 156 169 139 182 125C195 111 210 100 228 92C246 84 266 80 288 80C310 80 330 84 348 92C366 100 382 111 395 125C408 139 418 156 425 175C432 194 436 214 436 235C436 256 431 279 422 303C412 327 399 348 384 367C373 373 358 378 341 383C324 388 306 390 288 390Z"/>
<glyph unicode="&#xf1;" horiz-adv-x="610" d="M177 425C190 437 208 449 232 462C255 474 284 480 318 480C353 480 385 473 415 458C444 443 469 422 489 397C504 378 516 355 524 330C531 304 535 271 535 230L535 0L440 0L440 235C440 265 438 288 433 304C428 320 421 333 412 344C401 358 387 369 370 378C353 386 334 390 315 390C284 390 257 383 235 370C212 356 194 340 180 323L180 0L85 0L85 470L177 470L177 425ZM141 581C142 596 145 610 150 623C155 636 161 648 170 658C179 668 189 676 201 682C213 687 227 690 242 690C255 690 267 688 279 683C291 678 303 673 314 668C325 662 336 657 347 652C358 647 368 645 378 645C389 645 398 649 404 657C409 664 413 675 416 690L481 669C480 654 478 640 473 627C468 614 461 602 452 592C443 582 433 574 421 569C408 563 395 560 380 560C367 560 355 562 343 567C331 572 319 577 308 583C297 588 286 593 275 598C264 603 254 605 244 605C233 605 224 601 219 594C213 586 209 575 206 560L141 581Z"/>
<glyph unicode="&#xf2;" horiz-adv-x="576" d="M45 235C45 270 51 302 64 332C76 362 93 388 115 410C136 432 162 449 192 462C221 474 253 480 288 480C323 480 355 474 385 462C414 449 440 432 462 410C483 388 500 362 513 332C525 302 531 270 531 235C531 200 525 167 513 138C500 108 483 82 462 60C440 38 414 21 385 9C355 -4 323 -10 288 -10C253 -10 221 -4 192 9C162 21 136 38 115 60C93 82 76 108 64 138C51 167 45 200 45 235ZM140 235C140 214 144 194 151 175C158 156 169 139 182 125C195 111 210 100 228 92C246 84 266 80 288 80C310 80 330 84 348 92C366 100 382 111 395 125C408 139 418 156 425 175C432 194 436 214 436 235C436 256 432 277 425 296C418 315 408 331 395 345C382 359 366 370 348 378C330 386 310 390 288 390C266 390 246 386 228 378C210 370 195 359 182 345C169 331 158 315 151 296C144 277 140 256 140 235ZM258 550L153 700L258 700L323 550L258 550Z"/>
<glyph unicode="&#xf3;" horiz-adv-x="576" d="M45 235C45 270 51 302 64 332C76 362 93 388 115 410C136 432 162 449 192 462C221 474 253 480 288 480C323 480 355 474 385 462C414 449 440 432 462 410C483 388 500 362 513 332C525 302 531 270 531 235C531 200 525 167 513 138C500 108 483 82 462 60C440 38 414 21 385 9C355 -4 323 -10 288 -10C253 -10 221 -4 192 9C162 21 136 38 115 60C93 82 76 108 64 138C51 167 45 200 45 235ZM140 235C140 214 144 194 151 175C158 156 169 139 182 125C195 111 210 100 228 92C246 84 266 80 288 80C310 80 330 84 348 92C366 100 382 111 395 125C408 139 418 156 425 175C432 194 436 214 436 235C436 256 432 277 425 296C418 315 408 331 395 345C382 359 366 370 348 378C330 386 310 390 288 390C266 390 246 386 228 378C210 370 195 359 182 345C169 331 158 315 151 296C144 277 140 256 140 235ZM253 550L318 700L423 700L318 550L253 550Z"/>
<glyph unicode="&#xf4;" horiz-adv-x="576" d="M45 235C45 270 51 302 64 332C76 362 93 388 115 410C136 432 162 449 192 462C221 474 253 480 288 480C323 480 355 474 385 462C414 449 440 432 462 410C483 388 500 362 513 332C525 302 531 270 531 235C531 200 525 167 513 138C500 108 483 82 462 60C440 38 414 21 385 9C355 -4 323 -10 288 -10C253 -10 221 -4 192 9C162 21 136 38 115 60C93 82 76 108 64 138C51 167 45 200 45 235ZM140 235C140 214 144 194 151 175C158 156 169 139 182 125C195 111 210 100 228 92C246 84 266 80 288 80C310 80 330 84 348 92C366 100 382 111 395 125C408 139 418 156 425 175C432 194 436 214 436 235C436 256 432 277 425 296C418 315 408 331 395 345C382 359 366 370 348 378C330 386 310 390 288 390C266 390 246 386 228 378C210 370 195 359 182 345C169 331 158 315 151 296C144 277 140 256 140 235ZM138 550L233 700L343 700L438 550L373 550L288 644L203 550L138 550Z"/>
<glyph unicode="&#xf5;" horiz-adv-x="576" d="M45 235C45 270 51 302 64 332C76 362 93 388 115 410C136 432 162 449 192 462C221 474 253 480 288 480C323 480 355 474 385 462C414 449 440 432 462 410C483 388 500 362 513 332C525 302 531 270 531 235C531 200 525 167 513 138C500 108 483 82 462 60C440 38 414 21 385 9C355 -4 323 -10 288 -10C253 -10 221 -4 192 9C162 21 136 38 115 60C93 82 76 108 64 138C51 167 45 200 45 235ZM140 235C140 214 144 194 151 175C158 156 169 139 182 125C195 111 210 100 228 92C246 84 266 80 288 80C310 80 330 84 348 92C366 100 382 111 395 125C408 139 418 156 425 175C432 194 436 214 436 235C436 256 432 277 425 296C418 315 408 331 395 345C382 359 366 370 348 378C330 386 310 390 288 390C266 390 246 386 228 378C210 370 195 359 182 345C169 331 158 315 151 296C144 277 140 256 140 235ZM119 581C120 596 123 610 128 623C133 636 139 648 148 658C157 668 167 676 179 682C191 687 205 690 220 690C233 690 245 688 257 683C269 678 281 673 292 668C303 662 314 657 325 652C336 647 346 645 356 645C367 645 376 649 382 657C387 664 391 675 394 690L459 669C458 654 456 640 451 627C446 614 439 602 430 592C421 582 411 574 399 569C386 563 373 560 358 560C345 560 333 562 321 567C309 572 297 577 286 583C275 588 264 593 253 598C242 603 232 605 222 605C211 605 202 601 197 594C191 586 187 575 184 560L119 581Z"/>
<glyph unicode="&#xf6;" horiz-adv-x="576" d="M45 235C45 270 51 302 64 332C76 362 93 388 115 410C136 432 162 449 192 462C221 474 253 480 288 480C323 480 355 474 385 462C414 449 440 432 462 410C483 388 500 362 513 332C525 302 531 270 531 235C531 200 525 167 513 138C500 108 483 82 462 60C440 38 414 21 385 9C355 -4 323 -10 288 -10C253 -10 221 -4 192 9C162 21 136 38 115 60C93 82 76 108 64 138C51 167 45 200 45 235ZM140 235C140 214 144 194 151 175C158 156 169 139 182 125C195 111 210 100 228 92C246 84 266 80 288 80C310 80 330 84 348 92C366 100 382 111 395 125C408 139 418 156 425 175C432 194 436 214 436 235C436 256 432 277 425 296C418 315 408 331 395 345C382 359 366 370 348 378C330 386 310 390 288 390C266 390 246 386 228 378C210 370 195 359 182 345C169 331 158 315 151 296C144 277 140 256 140 235ZM133 617C133 634 139 649 151 662C163 674 178 680 195 680C212 680 227 674 240 662C252 649 258 634 258 617C258 600 252 585 240 573C227 561 212 555 195 555C178 555 163 561 151 573C139 585 133 600 133 617ZM318 617C318 634 324 649 336 662C348 674 363 680 380 680C397 680 412 674 425 662C437 649 443 634 443 617C443 600 437 585 425 573C412 561 397 555 380 555C363 555 348 561 336 573C324 585 318 600 318 617Z"/>
<glyph unicode="&#xf7;" horiz-adv-x="540" d="M490 305L490 215L50 215L50 305L490 305ZM200 100C200 119 207 136 221 150C234 163 251 170 270 170C289 170 306 163 320 150C333 136 340 119 340 100C340 81 333 64 320 51C306 37 289 30 270 30C251 30 234 37 221 51C207 64 200 81 200 100ZM200 420C200 439 207 456 221 470C234 483 251 490 270 490C289 490 306 483 320 470C333 456 340 439 340 420C340 401 333 384 320 371C306 357 289 350 270 350C251 350 234 357 221 371C207 384 200 401 200 420Z"/>
<glyph unicode="&#xf8;" horiz-adv-x="576" d="M45 235C45 270 51 302 64 332C76 362 93 388 115 410C136 432 162 449 192 462C221 474 253 480 288 480C311 480 333 477 354 472C374 466 393 458 411 448L439 480L550 480L476 393C493 372 507 348 517 321C526 294 531 266 531 235C531 200 525 167 513 138C500 108 483 82 462 60C440 38 414 21 385 9C355 -4 323 -10 288 -10C242 -10 201 0 165 21L139 -10L27 -10L99 76C82 97 68 121 59 148C50 175 45 204 45 235ZM140 235C140 204 147 176 162 151L351 376C331 385 310 390 288 390C266 390 246 386 228 378C210 370 195 359 182 345C169 331 158 315 151 296C144 277 140 256 140 235ZM436 235C436 265 429 293 414 318L225 93C244 84 265 80 288 80C310 80 330 84 348 92C366 100 382 111 395 125C408 139 418 156 425 175C432 194 436 214 436 235Z"/>
<glyph unicode="&#xf9;" horiz-adv-x="600" d="M285 -10C251 -10 220 -3 191 11C162 25 137 44 118 69C103 87 93 108 86 133C79 158 75 190 75 230L75 470L170 470L170 215C170 191 172 172 177 158C182 143 188 131 197 121C208 108 221 98 237 91C253 84 270 80 288 80C317 80 343 87 366 102C389 116 407 131 420 147L420 470L515 470L515 0L423 0L423 43C418 38 411 32 402 26C393 20 382 14 371 9C359 4 346 -1 331 -5C316 -8 301 -10 285 -10ZM275 550L170 700L275 700L340 550L275 550Z"/>
<glyph unicode="&#xfa;" horiz-adv-x="600" d="M285 -10C251 -10 220 -3 191 11C162 25 137 44 118 69C103 87 93 108 86 133C79 158 75 190 75 230L75 470L170 470L170 215C170 191 172 172 177 158C182 143 188 131 197 121C208 108 221 98 237 91C253 84 270 80 288 80C317 80 343 87 366 102C389 116 407 131 420 147L420 470L515 470L515 0L423 0L423 43C418 38 411 32 402 26C393 20 382 14 371 9C359 4 346 -1 331 -5C316 -8 301 -10 285 -10ZM260 550L325 700L430 700L325 550L260 550Z"/>
<glyph unicode="&#xfb;" horiz-adv-x="600" d="M285 -10C251 -10 220 -3 191 11C162 25 137 44 118 69C103 87 93 108 86 133C79 158 75 190 75 230L75 470L170 470L170 215C170 191 172 172 177 158C182 143 188 131 197 121C208 108 221 98 237 91C253 84 270 80 288 80C317 80 343 87 366 102C389 116 407 131 420 147L420 470L515 470L515 0L423 0L423 43C418 38 411 32 402 26C393 20 382 14 371 9C359 4 346 -1 331 -5C316 -8 301 -10 285 -10ZM145 550L240 700L350 700L445 550L380 550L295 644L210 550L145 550Z"/>
<glyph unicode="&#xfc;" horiz-adv-x="600" d="M285 -10C251 -10 220 -3 191 11C162 25 137 44 118 69C103 87 93 108 86 133C79 158 75 190 75 230L75 470L170 470L170 215C170 191 172 172 177 158C182 143 188 131 197 121C208 108 221 98 237 91C253 84 270 80 288 80C317 80 343 87 366 102C389 116 407 131 420 147L420 470L515 470L515 0L423 0L423 43C418 38 411 32 402 26C393 20 382 14 371 9C359 4 346 -1 331 -5C316 -8 301 -10 285 -10ZM140 617C140 634 146 649 158 662C170 674 185 680 202 680C219 680 234 674 247 662C259 649 265 634 265 617C265 600 259 585 247 573C234 561 219 555 202 555C185 555 170 561 158 573C146 585 140 600 140 617ZM325 617C325 634 331 649 343 662C355 674 370 680 387 680C404 680 419 674 432 662C444 649 450 634 450 617C450 600 444 585 432 573C419 561 404 555 387 555C370 555 355 561 343 573C331 585 325 600 325 617Z"/>
<glyph unicode="&#xfd;" horiz-adv-x="509" d="M84 -240L211 49L10 470L112 470L259 160L394 470L494 470L185 -240L84 -240ZM222 550L287 700L392 700L287 550L222 550Z"/>
<glyph unicode="&#xfe;" horiz-adv-x="605" d="M180 710L180 429C201 446 224 459 249 468C274 476 299 480 324 480C346 480 367 477 386 472C405 467 423 459 439 450C475 429 504 399 527 362C549 325 560 282 560 235C560 188 549 146 527 109C505 72 476 42 440 21C424 12 406 4 385 -2C364 -7 343 -10 322 -10C267 -10 219 7 180 41L180 -240L85 -240L85 710L180 710ZM180 147C196 126 216 109 239 98C262 86 285 80 309 80C332 80 353 84 372 93C391 101 407 112 421 126C435 140 446 156 454 175C461 194 465 214 465 235C465 256 461 275 454 294C447 313 437 329 424 344C411 358 395 369 376 378C357 386 337 390 314 390C285 390 260 384 237 371C214 358 195 342 180 323L180 147Z"/>
<glyph unicode="&#xff;" horiz-adv-x="509" d="M84 -240L211 49L10 470L112 470L259 160L394 470L494 470L185 -240L84 -240ZM94 617C94 634 100 649 112 662C124 674 139 680 156 680C173 680 188 674 201 662C213 649 219 634 219 617C219 600 213 585 201 573C188 561 173 555 156 555C139 555 124 561 112 573C100 585 94 600 94 617ZM279 617C279 634 285 649 297 662C309 674 324 680 341 680C358 680 373 674 386 662C398 649 404 634 404 617C404 600 398 585 386 573C373 561 358 555 341 555C324 555 309 561 297 573C285 585 279 600 279 617Z"/>
<glyph unicode="&#x131;" horiz-adv-x="265" d="M85 470L180 470L180 0L85 0L85 470Z"/>
<glyph unicode="&#x141;" horiz-adv-x="520" d="M190 460L340 547L340 439L190 352L190 95L500 95L500 0L90 0L90 294L-10 237L-10 345L90 402L90 700L190 700L190 460Z"/>
<glyph unicode="&#x142;" horiz-adv-x="265" d="M85 298L-15 240L-15 344L85 402L85 710L180 710L180 457L280 515L280 411L180 353L180 0L85 0L85 298Z"/>
<glyph unicode="&#x152;" horiz-adv-x="1085" d="M35 350C35 401 44 448 62 492C80 536 105 574 136 607C167 639 204 664 247 683C290 701 336 710 385 710C435 710 481 701 524 682C567 663 604 636 635 603L635 700L1035 700L1035 605L735 605L735 425L965 425L965 330L735 330L735 95L1045 95L1045 0L635 0L635 97C604 63 567 37 524 18C481 -1 435 -10 385 -10C336 -10 290 -1 247 18C204 36 167 61 136 94C105 126 80 164 62 208C44 251 35 299 35 350ZM385 85C421 85 454 92 485 105C515 118 541 137 564 161C586 184 603 212 616 245C629 277 635 312 635 350C635 388 629 423 616 456C603 488 586 516 564 540C541 563 515 582 485 595C454 608 421 615 385 615C349 615 316 608 286 595C255 582 229 563 207 540C184 516 167 488 154 456C141 423 135 388 135 350C135 312 141 277 154 245C167 212 184 184 207 161C229 137 255 118 286 105C316 92 349 85 385 85Z"/>
<glyph unicode="&#x153;" horiz-adv-x="936" d="M528 215C529 195 534 177 543 160C551 143 562 128 575 115C588 102 604 91 622 84C640 77 659 73 680 73C715 73 743 80 764 94C785 107 802 122 815 137L877 78C860 55 834 35 801 17C768 -1 727 -10 679 -10C637 -10 599 -1 566 17C532 35 504 60 483 91C462 60 435 36 402 18C368 -1 330 -10 288 -10C253 -10 221 -4 192 9C162 21 136 38 115 60C93 82 76 108 64 138C51 167 45 200 45 235C45 270 51 302 64 332C76 362 93 388 115 410C136 432 162 449 192 462C221 474 253 480 288 480C329 480 367 471 400 454C433 436 460 412 481 382C500 412 526 436 558 454C589 471 625 480 665 480C698 480 728 474 756 462C783 449 807 432 827 410C847 388 863 362 874 332C885 302 891 270 891 235C891 233 891 230 891 227C891 224 891 220 890 215L528 215ZM140 235C140 214 144 194 151 175C158 156 169 139 182 125C195 111 210 100 228 92C246 84 266 80 288 80C310 80 330 84 348 92C366 100 382 111 395 125C408 139 418 156 425 175C432 194 436 214 436 235C436 256 432 277 425 296C418 315 408 331 395 345C382 359 366 370 348 378C330 386 310 390 288 390C266 390 246 386 228 378C210 370 195 359 182 345C169 331 158 315 151 296C144 277 140 256 140 235ZM668 397C637 397 610 388 585 369C560 350 544 326 536 295L792 295C789 310 783 323 775 336C766 349 757 360 746 369C735 378 722 385 709 390C696 395 682 397 668 397Z"/>
<glyph unicode="&#x160;" horiz-adv-x="532" d="M99 175C120 150 144 128 173 111C202 94 234 85 270 85C286 85 302 88 317 93C332 98 345 105 356 114C367 123 375 134 382 147C389 160 392 174 392 190C392 217 384 238 368 255C351 271 331 285 307 297C282 309 256 320 228 331C200 342 174 355 151 370C126 387 105 407 88 432C71 457 62 487 62 524C62 549 67 573 78 596C89 619 104 639 123 656C142 673 164 686 190 696C215 705 243 710 274 710C296 710 317 708 336 704C355 699 372 694 388 687C403 680 417 672 430 664C442 656 453 648 462 640L403 567C365 599 323 615 278 615C263 615 249 613 236 609C222 605 210 599 199 591C188 583 179 573 172 562C165 550 162 536 162 521C162 499 170 481 187 466C203 451 223 438 248 427C272 415 298 403 326 392C353 381 378 368 401 353C413 345 424 336 435 326C446 316 455 305 464 292C473 279 480 264 485 248C490 231 492 213 492 193C492 162 486 135 475 110C464 85 448 63 429 46C410 28 387 14 361 5C334 -5 306 -10 275 -10C227 -10 182 0 140 20C98 40 61 69 30 107L99 175ZM199 900L284 806L369 900L434 900L339 750L229 750L134 900L199 900Z"/>
<glyph unicode="&#x161;" horiz-adv-x="455" d="M89 125C134 90 180 73 228 73C249 73 268 78 285 89C302 99 310 113 310 132C310 145 306 156 297 164C288 172 276 179 262 184C248 189 232 193 215 197C198 201 180 206 163 212C149 217 136 223 123 230C110 237 98 245 88 255C78 265 70 276 64 289C58 302 55 316 55 333C55 358 60 380 71 399C81 417 94 432 111 444C127 456 145 465 166 471C187 477 208 480 229 480C264 480 294 475 319 466C344 456 366 443 385 428L336 360C321 371 306 380 289 387C272 394 254 397 235 397C212 397 192 392 175 382C158 371 150 357 150 338C150 322 158 310 175 303C191 296 211 289 234 283C253 278 272 273 292 266C312 259 330 249 347 238C364 227 378 213 389 196C400 179 405 158 405 134C405 112 400 92 391 74C381 56 368 41 352 29C336 16 317 7 296 0C275 -7 253 -10 230 -10C157 -10 93 12 40 55L89 125ZM147 700L232 606L317 700L382 700L287 550L177 550L82 700L147 700Z"/>
<glyph unicode="&#x178;" horiz-adv-x="600" d="M350 320L350 0L250 0L250 320L10 700L122 700L300 419L478 700L590 700L350 320ZM145 817C145 834 151 849 163 862C175 874 190 880 207 880C224 880 239 874 252 862C264 849 270 834 270 817C270 800 264 785 252 773C239 761 224 755 207 755C190 755 175 761 163 773C151 785 145 800 145 817ZM330 817C330 834 336 849 348 862C360 874 375 880 392 880C409 880 424 874 437 862C449 849 455 834 455 817C455 800 449 785 437 773C424 761 409 755 392 755C375 755 360 761 348 773C336 785 330 800 330 817Z"/>
</font>
</defs>
</svg>
